<svg width="148" height="148" viewBox="0 0 148 148" fill="none" xmlns="http://www.w3.org/2000/svg"><path d="M94.415 38.463c3.984 0 7.226-3.242 7.226-7.226 0-3.985-3.242-7.227-7.227-7.227-3.984 0-7.226 3.242-7.226 7.227 0 1.627.541 3.13 1.453 4.34L76.767 52.169a7.198 7.198 0 0 0-7.17 1.579l-7.913-4.49c.105-.491.162-1 .162-1.52 0-3.985-3.242-7.227-7.227-7.227-3.984 0-7.226 3.242-7.226 7.226 0 .522.056 1.03.162 1.52l-7.914 4.49a7.198 7.198 0 0 0-4.92-1.938c-3.984 0-7.226 3.242-7.226 7.227 0 3.984 3.242 7.227 7.227 7.227 3.984 0 7.226-3.243 7.226-7.227 0-.521-.056-1.03-.162-1.52l7.914-4.49a7.198 7.198 0 0 0 4.92 1.939 7.2 7.2 0 0 0 4.918-1.94l7.915 4.491c-.106.49-.163.999-.163 1.52 0 3.985 3.242 7.227 7.227 7.227 3.985 0 7.227-3.242 7.227-7.227a7.189 7.189 0 0 0-1.453-4.34l11.874-16.593c.708.232 1.464.36 2.25.36zm0-10.117a2.894 2.894 0 0 1 2.89 2.89 2.894 2.894 0 0 1-2.89 2.891 2.894 2.894 0 0 1-2.891-2.89 2.894 2.894 0 0 1 2.89-2.891zM34.72 61.926a2.894 2.894 0 0 1-2.89-2.89 2.894 2.894 0 0 1 2.89-2.892 2.894 2.894 0 0 1 2.89 2.891 2.894 2.894 0 0 1-2.89 2.891zm19.898-11.298a2.894 2.894 0 0 1-2.89-2.89 2.894 2.894 0 0 1 2.89-2.892 2.894 2.894 0 0 1 2.89 2.891 2.894 2.894 0 0 1-2.89 2.891zm19.898 11.298a2.894 2.894 0 0 1-2.891-2.89 2.894 2.894 0 0 1 2.89-2.892 2.894 2.894 0 0 1 2.891 2.891 2.894 2.894 0 0 1-2.89 2.891z" fill="#CD071B"/><path d="M121.058 108.966H6.132c-.99 0-1.796-.806-1.796-1.796V17.728c0-.99.806-1.796 1.796-1.796h10.22a2.168 2.168 0 1 0 0-4.336H6.133A6.14 6.14 0 0 0 0 17.728v89.442a6.14 6.14 0 0 0 6.132 6.132h14.949v4.771a4.936 4.936 0 0 0 4.93 4.93h21.7l-10.215 19.944a2.17 2.17 0 0 0 1.927 3.157c.788 0 1.548-.43 1.932-1.18l11.228-21.921h23.97l11.228 21.921a2.166 2.166 0 0 0 2.917.942 2.17 2.17 0 0 0 .942-2.919l-10.216-19.944h21.701a4.935 4.935 0 0 0 4.929-4.93v-4.771h13.004a2.167 2.167 0 1 0 0-4.336zm-17.339 9.107a.595.595 0 0 1-.594.594H26.01a.594.594 0 0 1-.593-.594v-4.771h78.302v4.771z" fill="#000"/><path d="M25.024 15.932h97.978c.991 0 1.797.806 1.797 1.796v20.614a2.168 2.168 0 0 0 4.336 0V17.728a6.14 6.14 0 0 0-6.133-6.132H76.6V7.335a5.445 5.445 0 0 0-5.44-5.44H57.975a5.445 5.445 0 0 0-5.439 5.44v4.26h-27.51a2.168 2.168 0 1 0 0 4.337zm31.847-8.597c0-.609.495-1.104 1.103-1.104h13.187c.608 0 1.103.495 1.103 1.104v4.26H56.871v-4.26z" fill="#000"/><path d="M30.323 77.346c-1.197 0-2.168.97-2.168 2.168V98.67c0 1.198.97 2.168 2.168 2.168h8.795c1.198 0 2.168-.97 2.168-2.168V79.514c0-1.198-.97-2.168-2.168-2.168h-8.795zm6.628 19.157h-4.46V81.682h4.46v14.82z" fill="#CD071B"/><path d="M50.221 66.267c-1.197 0-2.168.97-2.168 2.168v30.236c0 1.198.97 2.168 2.168 2.168h8.796c1.197 0 2.167-.97 2.167-2.168V68.435c0-1.198-.97-2.168-2.167-2.168H50.22zm6.628 30.236h-4.46v-25.9h4.46v25.9z" fill="#CD071B"/><path d="M70.119 77.346c-1.198 0-2.168.97-2.168 2.168V98.67c0 1.198.97 2.168 2.168 2.168h8.795c1.197 0 2.168-.97 2.168-2.168V79.514c0-1.198-.97-2.168-2.168-2.168h-8.795zm6.627 19.157h-4.46V81.682h4.46v14.82z" fill="#CD071B"/><path d="M90.017 90.139c-1.198 0-2.168.97-2.168 2.168v6.364c0 1.197.97 2.168 2.168 2.168h8.795a2.168 2.168 0 0 0 0-4.336h-6.627v-4.196a2.168 2.168 0 0 0-2.168-2.168z" fill="#CD071B"/><path d="M146.894 111.006l-12.437-21.543c3.151-3.359 5.445-7.462 6.671-12.037 1.959-7.31.953-14.947-2.831-21.501-7.812-13.532-25.176-18.184-38.707-10.372-13.532 7.812-18.184 25.176-10.372 38.707 3.784 6.555 9.895 11.244 17.206 13.203 2.441.654 4.918.978 7.379.978 2.152 0 4.29-.248 6.382-.737l12.435 21.543a8.244 8.244 0 0 0 11.257 3.016 8.267 8.267 0 0 0 4.123-7.141 8.243 8.243 0 0 0-1.106-4.116zm-39.348-17.731a23.845 23.845 0 0 1-14.573-11.183c-6.617-11.46-2.676-26.167 8.784-32.784a23.856 23.856 0 0 1 11.96-3.21c8.3 0 16.385 4.305 20.825 11.995a23.84 23.84 0 0 1 2.397 18.211 23.84 23.84 0 0 1-11.182 14.573 23.842 23.842 0 0 1-18.211 2.398zm34.164 25.233a3.91 3.91 0 0 1-5.335-1.429l-11.963-20.726a28.813 28.813 0 0 0 3.514-1.72 28.79 28.79 0 0 0 3.246-2.188l11.967 20.728c.343.596.525 1.27.525 1.949a3.92 3.92 0 0 1-1.954 3.386z" fill="#000"/><path d="M133.415 76.2a20.517 20.517 0 0 0-1.027-14.862 2.168 2.168 0 1 0-3.922 1.847 16.195 16.195 0 0 1 .808 11.729 16.199 16.199 0 0 1-7.392 9.25 16.142 16.142 0 0 1-12.329 1.622 16.143 16.143 0 0 1-9.866-7.57c-4.48-7.759-1.812-17.715 5.947-22.195a16.226 16.226 0 0 1 17.937 1.115 2.168 2.168 0 1 0 2.616-3.457 20.552 20.552 0 0 0-22.721-1.413 20.448 20.448 0 0 0-9.59 12.498 20.449 20.449 0 0 0 2.056 15.62 20.448 20.448 0 0 0 12.498 9.59 20.459 20.459 0 0 0 15.619-2.056 20.52 20.52 0 0 0 9.366-11.718z" fill="#000"/></svg>