<svg width="98" height="98" viewBox="0 0 98 98" fill="none" xmlns="http://www.w3.org/2000/svg"><path d="M88.43 8.422h-9.124v-2.68A5.749 5.749 0 0 0 73.564 0a5.749 5.749 0 0 0-5.742 5.742v2.68H35.665v-2.68A5.749 5.749 0 0 0 29.923 0a5.749 5.749 0 0 0-5.742 5.742v2.75a1.91 1.91 0 0 0-.51-.07h-7.627c-5.277 0-9.57 4.293-9.57 9.57v32.603a1.914 1.914 0 0 0 3.828 0V28.137h69.004a1.914 1.914 0 0 0 0-3.828H10.302v-6.317a5.749 5.749 0 0 1 5.742-5.742h7.627c.177 0 .347-.026.51-.07v2.463a5.749 5.749 0 0 0 5.742 5.742 5.749 5.749 0 0 0 5.742-5.742V12.25h32.157v2.393a5.749 5.749 0 0 0 5.742 5.742 5.749 5.749 0 0 0 5.742-5.742V12.25h9.124a5.749 5.749 0 0 1 5.742 5.742v72.733a3.45 3.45 0 0 1-3.447 3.447 3.45 3.45 0 0 1-3.446-3.447v-4.951a1.914 1.914 0 0 0-1.914-1.914H63.1a1.914 1.914 0 0 0 0 3.828h20.35v3.037c0 1.247.316 2.42.87 3.447H7.274a3.45 3.45 0 0 1-3.445-3.445v-3.039H46.67a1.914 1.914 0 0 0 0-3.828H27.545c3.345-2.88 5.469-7.141 5.469-11.891 0-8.655-7.041-15.696-15.696-15.696-8.654 0-15.695 7.041-15.695 15.696 0 4.75 2.124 9.01 5.468 11.89H1.914A1.914 1.914 0 0 0 0 85.775v4.953C0 94.737 3.263 98 7.273 98h83.452A7.283 7.283 0 0 0 98 90.725V17.992c0-5.277-4.293-9.57-9.57-9.57zm-56.593 6.22a1.916 1.916 0 0 1-1.914 1.915 1.916 1.916 0 0 1-1.914-1.914v-8.9c0-1.056.859-1.915 1.914-1.915 1.056 0 1.914.859 1.914 1.914v8.9zm43.64 0a1.916 1.916 0 0 1-1.913 1.915 1.916 1.916 0 0 1-1.914-1.914v-8.9c0-1.056.858-1.915 1.914-1.915 1.055 0 1.914.859 1.914 1.914v8.9zM5.452 71.97c0-6.544 5.324-11.867 11.867-11.867 6.544 0 11.867 5.323 11.867 11.867 0 6.543-5.323 11.867-11.867 11.867-6.543 0-11.867-5.324-11.867-11.867z" fill="#000"/><path d="M89.637 24.87a1.928 1.928 0 0 0-1.353-.561c-.503 0-.997.204-1.353.56-.356.356-.56.85-.56 1.354 0 .503.204.997.56 1.353.356.356.85.56 1.353.56.504 0 .997-.204 1.353-.56.356-.356.561-.85.561-1.353 0-.504-.205-.998-.56-1.354z" fill="#CD071B"/><path d="M57.163 84.42a1.926 1.926 0 0 0-1.353-.559c-.503 0-.997.203-1.353.56a1.93 1.93 0 0 0-.561 1.352c0 .506.205.998.56 1.356.357.356.85.558 1.354.558.503 0 .997-.202 1.353-.558.356-.358.561-.852.561-1.356 0-.503-.205-.995-.56-1.353z" fill="#CD071B"/><path d="M43.305 58.188c-4.01 0-7.274 3.262-7.274 7.273 0 4.01 3.263 7.273 7.274 7.273 4.01 0 7.273-3.262 7.273-7.273 0-4.01-3.263-7.273-7.273-7.273zm0 10.718a3.45 3.45 0 0 1-3.446-3.445 3.45 3.45 0 0 1 3.446-3.445 3.45 3.45 0 0 1 3.445 3.445 3.45 3.45 0 0 1-3.445 3.445z" fill="#CD071B"/><path d="M61.169 58.188c-4.01 0-7.273 3.262-7.273 7.273 0 4.01 3.262 7.273 7.273 7.273 4.01 0 7.273-3.262 7.273-7.273 0-4.01-3.262-7.273-7.273-7.273zm0 10.718a3.45 3.45 0 0 1-3.445-3.445 3.45 3.45 0 0 1 3.445-3.445 3.45 3.45 0 0 1 3.445 3.445 3.45 3.45 0 0 1-3.445 3.445z" fill="#CD071B"/><path d="M79.034 58.188c-4.01 0-7.274 3.262-7.274 7.273 0 4.01 3.263 7.273 7.274 7.273 4.01 0 7.273-3.262 7.273-7.273 0-4.01-3.263-7.273-7.273-7.273zm0 10.718a3.45 3.45 0 0 1-3.446-3.445 3.45 3.45 0 0 1 3.446-3.445 3.45 3.45 0 0 1 3.445 3.445 3.45 3.45 0 0 1-3.445 3.445z" fill="#CD071B"/><path d="M25.44 38.281c-4.01 0-7.274 3.263-7.274 7.274 0 4.01 3.263 7.273 7.274 7.273 4.01 0 7.273-3.263 7.273-7.273s-3.262-7.274-7.273-7.274zm0 10.719a3.45 3.45 0 0 1-3.445-3.445 3.45 3.45 0 0 1 3.445-3.446 3.45 3.45 0 0 1 3.445 3.446A3.45 3.45 0 0 1 25.44 49z" fill="#CD071B"/><path d="M61.169 38.281c-4.01 0-7.273 3.263-7.273 7.274 0 4.01 3.262 7.273 7.273 7.273 4.01 0 7.273-3.263 7.273-7.273S65.18 38.28 61.17 38.28zm0 10.719a3.45 3.45 0 0 1-3.445-3.445 3.45 3.45 0 0 1 3.445-3.446 3.45 3.45 0 0 1 3.445 3.446A3.45 3.45 0 0 1 61.17 49z" fill="#CD071B"/><path d="M79.034 38.281c-4.01 0-7.274 3.263-7.274 7.274 0 4.01 3.263 7.273 7.274 7.273 4.01 0 7.273-3.263 7.273-7.273s-3.263-7.274-7.273-7.274zm0 10.719a3.45 3.45 0 0 1-3.446-3.445 3.45 3.45 0 0 1 3.446-3.446 3.45 3.45 0 0 1 3.445 3.446A3.45 3.45 0 0 1 79.034 49z" fill="#CD071B"/><path d="M43.305 38.281c-4.01 0-7.274 3.263-7.274 7.274 0 4.01 3.263 7.273 7.274 7.273 4.01 0 7.273-3.263 7.273-7.273s-3.263-7.274-7.273-7.274zm0 10.719a3.45 3.45 0 0 1-3.446-3.445 3.45 3.45 0 0 1 3.446-3.446 3.45 3.45 0 0 1 3.445 3.446A3.45 3.45 0 0 1 43.305 49z" fill="#CD071B"/><path d="M24.137 67.304a1.914 1.914 0 0 0-2.707 0l-6.233 6.233-2.13-2.13a1.914 1.914 0 0 0-2.708 2.707l3.484 3.484a1.914 1.914 0 0 0 2.707 0l7.587-7.587a1.914 1.914 0 0 0 0-2.707z" fill="#CD071B"/></svg>