<svg width="98" height="98" viewBox="0 0 98 98" fill="none" xmlns="http://www.w3.org/2000/svg"><g clip-path="url(#clip0)"><path d="M81.444 7.862c-7.489 0-13.405 6.01-13.405 13.497a13.355 13.355 0 0 0 13.404 13.405c7.396 0 13.497-6.01 13.497-13.497 0-7.488-6.008-13.405-13.496-13.405zm0 23.943a10.534 10.534 0 0 1-10.54-10.538c0-5.824 4.808-10.447 10.54-10.447a10.534 10.534 0 0 1 10.538 10.54c0 5.823-4.715 10.445-10.538 10.445z" fill="#CD071B"/><path d="M85.696 23.393c-.093-.278-.093-.463-.277-.74-.093-.185-.185-.462-.37-.647s-.278-.37-.462-.555c-.185-.185-.37-.37-.648-.462-.184-.185-.462-.277-.647-.37-.277-.092-.462-.277-.74-.37a6.213 6.213 0 0 1-.739-.277c-.092 0-.277-.092-.37-.185-.092-.092-.277-.092-.37-.185-.092-.092-.277-.092-.369-.184l-.277-.278c-.093-.092-.185-.185-.185-.37-.093-.092-.093-.277-.093-.37v-.462c0-.092.093-.277.093-.37.092-.092.092-.277.185-.37l.277-.276a.706.706 0 0 1 .462-.185c.185-.093.278-.093.462-.093h.555c.185 0 .277 0 .462.093.185 0 .37.092.463.092.092 0 .277.093.37.093.184 0 .277.092.37.092l.461.185.093-.555.185-1.479v-.37l-.37-.092c-.093 0-.278-.093-.37-.093-.092 0-.185-.092-.37-.092-.092 0-.277-.092-.462-.092s-.277-.093-.462-.093h-.093v-1.756h-2.218v1.849h-.093c-.277.092-.554.184-.832.37-.277.092-.462.277-.647.462-.185.184-.37.37-.555.647-.184.185-.277.462-.37.74l-.277.831c-.092.278-.092.647-.092.925 0 .277 0 .462.092.74.093.277.093.461.278.739.092.185.277.462.37.647.184.185.277.37.462.555.185.184.37.37.647.462.185.185.462.277.647.37.277.092.555.277.74.37.277.092.554.184.74.277.091 0 .276.092.369.185.092.092.277.092.37.184.092.093.184.185.277.185l.277.278c.093.092.093.185.185.37 0 .092.093.277.093.462v.462c0 .092-.093.277-.185.37l-.278.277c-.092.092-.184.185-.37.277-.092.093-.277.093-.37.185-.092 0-.276.093-.461.093h-1.202c-.185 0-.37-.093-.462-.093-.185 0-.37-.092-.555-.185-.185-.092-.37-.092-.555-.185-.092 0-.185-.092-.277-.092-.093 0-.185-.092-.277-.092l-.555-.278-.093.647-.184 1.664v.278l.277.092c.37-.092.555 0 .832.093.185.092.462.184.647.184.185.093.462.093.74.185.277.093.462.093.74.093h.184v1.849h2.219v-1.942h.092c.278-.092.555-.185.832-.37.277-.092.462-.277.74-.462.185-.185.37-.37.554-.647.185-.185.278-.462.463-.74l.277-.831c.092-.278.092-.555.092-.925 0-.277 0-.462-.092-.74z" fill="#CD071B"/><path d="M74.973 36.52c-.463-.648-1.48-.74-2.127-.278L57.87 48.167l-19.32-8.042a1.475 1.475 0 0 0-1.387.185L16.455 55.1c-.647.463-.832 1.387-.37 2.035.278.462.74.647 1.202.647.277 0 .555-.093.832-.278l20.06-14.329 19.414 8.043c.462.185 1.11.092 1.48-.185l15.622-12.387c.647-.463.74-1.48.278-2.127z" fill="#CD071B"/><path d="M96.605 87.18h-6.841V44.376a1.46 1.46 0 0 0-1.48-1.479H74.696a1.46 1.46 0 0 0-1.479 1.48v42.801h-4.992V59.17a1.46 1.46 0 0 0-1.479-1.48H53.063a1.46 1.46 0 0 0-1.479 1.48v28.01h-4.992V56.95a1.46 1.46 0 0 0-1.48-1.48H31.525a1.46 1.46 0 0 0-1.48 1.48v30.23h-4.992V65.64a1.46 1.46 0 0 0-1.479-1.48H9.892a1.46 1.46 0 0 0-1.48 1.48v21.54H1.48A1.46 1.46 0 0 0 0 88.657c0 .832.647 1.48 1.48 1.48h95.032a1.46 1.46 0 0 0 1.478-1.48c.093-.832-.554-1.479-1.386-1.479zm-74.603 0H11.37V67.118H22v20.06zm21.632 0H33.003V58.43h10.63v28.75zm21.54 0H54.541V60.647h10.631v26.531zm21.631 0h-10.63V45.856h10.63v41.322z" fill="#000"/></g><defs><clipPath id="clip0"><path fill="#fff" d="M0 0h98v98H0z"/></clipPath></defs></svg>