<svg width="98" height="98" viewBox="0 0 98 98" fill="none" xmlns="http://www.w3.org/2000/svg"><g clip-path="url(#clip0)"><path d="M97.962 47.703c-.903-19.542-17.475-34.653-37.017-33.75-18.28.843-32.907 15.47-33.75 33.75h-5.016l-4.737-7.64a1.634 1.634 0 0 0-1.388-.772H1.643a1.633 1.633 0 0 0-1.388 2.494l4.715 7.602L.255 56.99a1.633 1.633 0 0 0 1.388 2.494h14.41c.566 0 1.091-.293 1.389-.773l4.8-7.742h4.952c.902 19.542 17.475 34.653 37.017 33.75 19.542-.902 34.653-17.474 33.75-37.016zm-82.818 8.514H4.574l3.19-5.145H18.33l-3.186 5.145zm-7.375-8.514l-3.196-5.145h10.57l3.192 5.145H7.77zm54.891 33.79c-17.14.024-31.287-13.403-32.157-30.523h6.672c.902 14.043 13.018 24.696 27.06 23.794 14.043-.902 24.696-13.018 23.794-27.06-.902-14.043-13.017-24.696-27.06-23.794-12.785.821-22.973 11.008-23.794 23.794h-6.672c.875-17.084 14.967-30.495 32.073-30.522 17.76-.023 32.175 14.355 32.199 32.115.023 17.76-14.356 32.175-32.115 32.198zm-.085-33.79h-1.673a2.344 2.344 0 1 1 0 3.266h1.673a1.633 1.633 0 0 0 0-3.266zm1.668 6.999a5.609 5.609 0 1 0-7-7h-6.827c.902-6.72 7.082-11.438 13.804-10.536 6.721.902 11.439 7.082 10.537 13.803-.902 6.722-7.082 11.44-13.804 10.537A12.28 12.28 0 0 1 50.416 50.97h6.828a5.609 5.609 0 0 0 6.999 3.733zm-.033 10.094c8.538-.902 14.729-8.555 13.827-17.093-.902-8.538-8.555-14.729-17.093-13.827a15.546 15.546 0 0 0-13.827 13.827h-6.675c.902-12.235 11.551-21.422 23.786-20.52 12.234.903 21.421 11.552 20.52 23.786-.903 12.235-11.552 21.422-23.787 20.52-10.98-.81-19.71-9.54-20.52-20.52h6.676c.902 8.538 8.555 14.729 17.093 13.827z" fill="#000"/><path d="M29.4.001H16.332v3.267h13.066V0z" fill="#CD071B"/><path d="M42.466 11.435H29.399V14.7h13.067v-3.266z" fill="#CD071B"/><path d="M13.066.001H9.8v3.267h3.266V0z" fill="#CD071B"/><path d="M19.6 31.034H6.533v3.267H19.6v-3.267z" fill="#CD071B"/><path d="M3.267 31.034H0v3.267h3.267v-3.267z" fill="#CD071B"/><path d="M22.866 66.966h-9.8v3.266h9.8v-3.266z" fill="#CD071B"/><path d="M9.8 66.966H6.533v3.266H9.8v-3.266z" fill="#CD071B"/><path d="M35.933 81.666h-3.267v3.267h3.267v-3.267z" fill="#CD071B"/><path d="M19.6 94.732H6.533V98H19.6v-3.267z" fill="#CD071B"/><path d="M3.267 94.732H0V98h3.267v-3.267z" fill="#CD071B"/></g><defs><clipPath id="clip0"><path fill="#fff" d="M0 0h98v98H0z"/></clipPath></defs></svg>