<svg width="59" height="59" viewBox="0 0 59 59" fill="none" xmlns="http://www.w3.org/2000/svg"><g clip-path="url(#clip0)"><path d="M58.23 24.452l-5.614-.541a23.403 23.403 0 0 0-2.863-6.798l3.577-4.318a.852.852 0 0 0-.05-1.143l-5.85-5.924a.852.852 0 0 0-1.15-.058l-4.324 3.582a23.966 23.966 0 0 0-6.792-2.867L34.624.77a.852.852 0 0 0-.849-.77h-8.4a.852.852 0 0 0-.848.77l-.541 5.614a23.412 23.412 0 0 0-6.797 2.863L12.87 5.67a.852.852 0 0 0-1.146.054L5.8 11.649a.852.852 0 0 0-.054 1.146l3.582 4.325a23.96 23.96 0 0 0-2.868 6.79l-5.613.542a.852.852 0 0 0-.77.848v8.4c0 .44.333.806.77.848l5.613.542a23.402 23.402 0 0 0 2.863 6.796l-3.577 4.32A.852.852 0 0 0 5.8 47.35l5.925 5.925a.852.852 0 0 0 1.146.054l4.324-3.582a23.964 23.964 0 0 0 6.792 2.867l.541 5.614c.042.438.41.77.848.77h8.4a.851.851 0 0 0 .848-.77l.398-4.129a13.595 13.595 0 0 0 9.926 4.295c7.51 0 13.618-6.095 13.618-13.587a13.534 13.534 0 0 0-4.264-9.866l3.932-.394A.853.853 0 0 0 59 33.7v-8.4a.853.853 0 0 0-.77-.848zm-1.369 20.356c0 6.552-5.344 11.883-11.914 11.883a11.918 11.918 0 0 1-9.812-5.152.848.848 0 0 0-.122-.18 11.79 11.79 0 0 1-1.98-6.552c0-6.552 5.345-11.882 11.914-11.882 6.57 0 11.914 5.33 11.914 11.883zM46.292 31.287a13.595 13.595 0 0 0-5.577.606 5.484 5.484 0 0 0-5.455-4.991h-1.27a.853.853 0 0 0-.8.557l-2.06 5.598-.158-1.613a.851.851 0 0 0 .45-.497l.882-2.586a.853.853 0 0 0-.804-1.127l-3.676-.013h-.003a.852.852 0 0 0-.807 1.126l.882 2.599a.854.854 0 0 0 .553.539l-.164 1.666-2.104-5.693a.852.852 0 0 0-.8-.556h-1.565a5.484 5.484 0 0 0-5.479 5.48l.012 9.624A16.775 16.775 0 0 1 12.761 29.5c0-9.271 7.543-16.814 16.813-16.814S46.389 20.23 46.389 29.5a17.01 17.01 0 0 1-.097 1.787zM30.006 29.82h-.692l-.302-.891 1.296.005-.302.886zm-.294 6.236l.536 5.449-.524.353-.548-.36.536-5.442zm-9.656 7.296l-.014-10.972a3.778 3.778 0 0 1 3.774-3.774h.972l3.115 8.427-.473 4.81a.852.852 0 0 0 .38.795l1.451.956a.85.85 0 0 0 .946-.005l1.282-.865a13.632 13.632 0 0 0-.088 3.49 16.722 16.722 0 0 1-11.345-2.861zm11.846-2.446l-.39-3.957 3.072-8.343h.676a3.779 3.779 0 0 1 3.774 3.774v.19a13.66 13.66 0 0 0-7.132 8.336zm25.394-7.977l-4.925.493a13.566 13.566 0 0 0-4.392-1.862c.076-.684.114-1.372.114-2.06 0-10.21-8.307-18.518-18.518-18.518S11.057 19.289 11.057 29.5s8.306 18.518 18.517 18.518c.705 0 1.41-.04 2.11-.12a13.49 13.49 0 0 0 1.811 4.257L33 57.295h-6.85l-.526-5.453a.853.853 0 0 0-.668-.752 22.277 22.277 0 0 1-7.368-3.108.854.854 0 0 0-1.006.06l-4.201 3.48-4.828-4.827 3.48-4.202a.852.852 0 0 0 .053-1.017 21.617 21.617 0 0 1-3.101-7.356.852.852 0 0 0-.752-.668l-5.453-.526v-6.851l5.454-.526a.853.853 0 0 0 .75-.668 22.268 22.268 0 0 1 3.11-7.368.852.852 0 0 0-.06-1.005l-3.48-4.203 4.827-4.827 4.201 3.48c.29.24.704.262 1.017.053a21.634 21.634 0 0 1 7.357-3.101.852.852 0 0 0 .668-.751l.525-5.455h6.852l.525 5.455a.852.852 0 0 0 .669.75 22.275 22.275 0 0 1 7.367 3.109.853.853 0 0 0 1.006-.06l4.198-3.477 4.759 4.82-3.483 4.206a.852.852 0 0 0-.053 1.016 21.63 21.63 0 0 1 3.102 7.358.852.852 0 0 0 .75.668l5.455.525v6.855z" fill="url(#paint0_linear)"/><path d="M29.797 14.048h-.52a5.01 5.01 0 0 0-5.003 5.003v2.284a5.01 5.01 0 0 0 5.004 5.004h.519a5.01 5.01 0 0 0 5.004-5.004v-2.283a5.01 5.01 0 0 0-5.004-5.004zm3.3 7.287a3.303 3.303 0 0 1-3.3 3.3h-.52a3.304 3.304 0 0 1-3.299-3.3v-2.283a3.304 3.304 0 0 1 3.3-3.3h.519a3.304 3.304 0 0 1 3.3 3.3v2.283z" fill="url(#paint1_linear)"/><path d="M44.947 38.272a2.804 2.804 0 0 1 2.8 2.8.852.852 0 1 0 1.705 0 4.511 4.511 0 0 0-3.653-4.422v-1.236a.852.852 0 1 0-1.704 0v1.236a4.505 4.505 0 0 0 .852 8.927 2.8 2.8 0 0 1 .034 5.6l-.034-.002-.034.002a2.803 2.803 0 0 1-2.766-2.8.852.852 0 0 0-1.705 0 4.511 4.511 0 0 0 3.653 4.423v1.403a.852.852 0 1 0 1.704 0V52.8a4.505 4.505 0 0 0-.852-8.927 2.8 2.8 0 1 1 0-5.6z" fill="url(#paint2_linear)"/></g><defs><linearGradient id="paint0_linear" x1="29.538" x2="29.538" y2="59" gradientUnits="userSpaceOnUse"><stop stop-color="#81DC0D"/><stop offset="1" stop-color="#7CD708"/></linearGradient><linearGradient id="paint1_linear" x1="29.537" y1="14.048" x2="29.537" y2="26.339" gradientUnits="userSpaceOnUse"><stop stop-color="#81DC0D"/><stop offset="1" stop-color="#7CD708"/></linearGradient><linearGradient id="paint2_linear" x1="44.947" y1="34.562" x2="44.947" y2="55.055" gradientUnits="userSpaceOnUse"><stop stop-color="#81DC0D"/><stop offset="1" stop-color="#7CD708"/></linearGradient><clipPath id="clip0"><path fill="#fff" d="M0 0h59v59H0z"/></clipPath></defs></svg>