<svg width="112" height="112" viewBox="0 0 112 112" fill="none" xmlns="http://www.w3.org/2000/svg"><path d="M44.423 74.61c0 6.195 5.209 11.235 11.61 11.235 6.402 0 11.61-5.04 11.61-11.236 0-6.195-5.208-11.234-11.61-11.234-6.402 0-11.61 5.04-11.61 11.234zm19.636 0c0 4.219-3.6 7.651-8.026 7.651-4.425 0-8.026-3.432-8.026-7.651 0-4.22 3.6-7.651 8.026-7.651 4.425 0 8.026 3.431 8.026 7.65z" fill="#000"/><path d="M82.584 82.432h-3.302c-5.74 0-11.039 2.949-13.983 7.588a15.47 15.47 0 0 0-7.648-1.988H54.35a15.475 15.475 0 0 0-7.647 1.987c-2.945-4.635-8.26-7.587-13.983-7.587h-3.303a16.654 16.654 0 0 0-11.593 4.622 15.537 15.537 0 0 0-4.831 11.252v6.375a1.762 1.762 0 0 0 1.83 1.719h23.034v3.808c0 .989.91 1.792 1.899 1.792h32.49c.99 0 1.899-.803 1.899-1.792V106.4h23.033a1.762 1.762 0 0 0 1.83-1.719v-6.375a15.536 15.536 0 0 0-4.83-11.252 16.654 16.654 0 0 0-11.593-4.622zm-44.497 20.384H16.576v-4.51a11.981 11.981 0 0 1 3.731-8.668 13.088 13.088 0 0 1 9.109-3.622h3.303c4.57 0 8.795 2.371 11.065 6.085-.367.327-.724.643-1.068 1.006a17.233 17.233 0 0 0-4.629 9.709zm32.473 5.6H41.44v-3.598c0-7.048 6.09-13.202 12.909-13.202h3.302c6.82 0 12.909 6.154 12.909 13.202v3.598zm24.864-5.6H73.913a17.203 17.203 0 0 0-4.63-9.698c-.344-.363-.701-.71-1.068-1.036 2.269-3.718 6.483-6.066 11.065-6.066h3.303a13.085 13.085 0 0 1 9.108 3.621 11.978 11.978 0 0 1 3.733 8.67v4.509z" fill="#000"/><path d="M80.966 57.847c-6.401 0-11.61 5.04-11.61 11.236 0 6.195 5.209 11.235 11.61 11.235 6.402 0 11.61-5.04 11.61-11.235 0-6.196-5.208-11.236-11.61-11.236zm0 18.887c-4.425 0-8.025-3.433-8.025-7.651 0-4.22 3.6-7.652 8.025-7.652 4.425 0 8.026 3.433 8.026 7.652 0 4.218-3.6 7.651-8.026 7.651z" fill="#000"/><path d="M31.1 80.318c6.402 0 11.61-5.04 11.61-11.235 0-6.196-5.208-11.236-11.61-11.236-6.401 0-11.61 5.04-11.61 11.236 0 6.195 5.209 11.235 11.61 11.235zm0-18.887c4.426 0 8.026 3.433 8.026 7.652 0 4.218-3.6 7.651-8.026 7.651-4.427 0-8.025-3.433-8.025-7.653s3.6-7.65 8.025-7.65z" fill="#000"/><path d="M21.28 1.792v41.13c0 .99.802 1.878 1.792 1.878h47.541l10.758 10.595a1.76 1.76 0 0 0 1.26.496c.242-.003.48-.054.703-.148a1.82 1.82 0 0 0 1.114-1.664V44.8h4.48c.99 0 1.792-.888 1.792-1.878V1.792C90.72.802 89.918 0 88.928 0H23.072c-.99 0-1.792.802-1.792 1.792zm3.584 1.792h62.272v37.632h-4.504a1.702 1.702 0 0 0-1.768 1.706v6.865l-8.24-8.096a1.783 1.783 0 0 0-1.274-.475H24.864V3.584z" fill="#000"/><path d="M71.68 26.99a6.435 6.435 0 0 0 0-12.736V7.22a1.666 1.666 0 0 0-2.375-1.61l-17.17 6.934H43.72a5.123 5.123 0 0 0-5.192 5.187v6.22a5.25 5.25 0 0 0 2.517 4.537l1.676 9.042c.156.835.888 1.44 1.739 1.434l7.08.012h.01a1.77 1.77 0 0 0 1.378-.62c.341-.389.482-.914.381-1.421l-1.464-7.59h.29l17.2 6.83c.213.076.438.112.664.104a1.64 1.64 0 0 0 .95-.32c.478-.346.753-.907.731-1.497V26.99zm1.935-6.368c0 1.25-.591 2.314-1.935 2.697v-5.394c1.344.383 1.935 1.446 1.935 2.697zm-31.503-2.89a1.534 1.534 0 0 1 1.608-1.604h6.904v9.632H43.72a1.744 1.744 0 0 1-.372-.09 1.498 1.498 0 0 0-.317-.155 1.703 1.703 0 0 1-.919-1.564v-6.22zm7.268 17.75l-3.436.005-1.16-6.143h3.411l1.185 6.137zm18.716-3.667l-13.888-5.574v-10.8l13.888-5.574v21.948z" fill="#CD071B"/></svg>