<svg width="98" height="98" viewBox="0 0 98 98" fill="none" xmlns="http://www.w3.org/2000/svg"><path d="M92.258 68.14h-6.125v-50.3h.63a1.914 1.914 0 0 0 1.623-2.93L82.013 4.732a1.914 1.914 0 0 0-3.244 0L72.396 14.91a1.914 1.914 0 0 0 1.622 2.93h.63v37.095a1.914 1.914 0 0 0 3.829 0v-39.01c0-.77-.456-1.434-1.112-1.738l3.026-4.831 3.025 4.831a1.915 1.915 0 0 0-1.111 1.739V68.14H68.523a5.749 5.749 0 0 0-5.742 5.742v.712a5.716 5.716 0 0 0-1.914-.33h-8.601V53.182c0-5.277-4.293-9.57-9.57-9.57h-2.264V41.28c.805.36 1.696.563 2.634.563h9.93a5.676 5.676 0 0 0 5.67-5.67 5.676 5.676 0 0 0-5.67-5.67h-4.921V28.35c0-5.79-3.916-10.678-9.237-12.165a8.854 8.854 0 0 0 1.94-5.539V8.9c.001-4.908-3.99-8.9-8.898-8.9s-8.9 3.992-8.9 8.9v1.745a8.85 8.85 0 0 0 1.878 5.457c-5.472 1.386-9.534 6.35-9.534 12.247v9.918c0 4.619 3.295 8.482 7.657 9.365v10.843a1.914 1.914 0 0 0 3.828 0V47.439h15.887a5.749 5.749 0 0 1 5.742 5.742v21.085h-4.594V55.492a1.914 1.914 0 0 0-1.914-1.914h-8.625a1.914 1.914 0 0 0-1.914 1.914v27.961h-4.582v-9.379a1.914 1.914 0 0 0-3.828 0v9.38H5.742A5.749 5.749 0 0 0 0 89.194v6.89C0 97.144.857 98 1.914 98h94.172A1.914 1.914 0 0 0 98 96.086V73.883a5.749 5.749 0 0 0-5.742-5.742zM26.808 8.9a5.077 5.077 0 0 1 5.072-5.072A5.077 5.077 0 0 1 36.95 8.9v1.746a5.077 5.077 0 0 1-5.07 5.071 5.077 5.077 0 0 1-5.071-5.07V8.898zm11.71 19.478a1.914 1.914 0 0 0-1.914 1.915V43.61H26.81V30.293a1.914 1.914 0 1 0-3.828 0v13.376a5.735 5.735 0 0 1-3.829-5.401v-9.919c0-4.855 3.95-8.805 8.805-8.805h7.485c4.855 0 8.805 3.95 8.805 8.805v4.068c0 1.057.857 1.914 1.914 1.914h6.835c1.016 0 1.842.826 1.842 1.841a1.844 1.844 0 0 1-1.842 1.842h-9.93a2.637 2.637 0 0 1-2.634-2.634v-5.088a1.914 1.914 0 0 0-1.914-1.914zm-7.127 65.794H3.828v-4.977c0-1.055.859-1.914 1.914-1.914h23.735c1.055 0 1.914.859 1.914 1.914v4.977zm3.828-36.766h4.797v16.86h-2.883a5.7 5.7 0 0 0-1.914.329V57.406zM62.78 94.172H35.22V80.008c0-1.056.858-1.914 1.914-1.914h23.734c1.056 0 1.914.858 1.914 1.914v14.164zm31.39 0H66.61V73.883c0-1.056.859-1.914 1.914-1.914h23.735c1.055 0 1.914.858 1.914 1.914v20.289z" fill="#000"/><path d="M26.247 64.566a1.93 1.93 0 0 0-1.353-.561c-.503 0-.995.205-1.353.56-.356.357-.561.85-.561 1.354 0 .503.205.997.56 1.353.357.356.85.561 1.354.561.503 0 .997-.205 1.353-.56.356-.357.561-.85.561-1.354a1.93 1.93 0 0 0-.56-1.353z" fill="#CD071B"/><path d="M77.916 60.854a1.928 1.928 0 0 0-1.353-.561c-.504 0-.998.205-1.354.56a1.93 1.93 0 0 0-.56 1.354c0 .503.204.997.56 1.353.356.356.85.561 1.353.561.504 0 .998-.205 1.354-.56.356-.357.56-.85.56-1.354 0-.503-.204-.997-.56-1.353z" fill="#CD071B"/></svg>