<svg width="144" height="144" viewBox="0 0 144 144" fill="none" xmlns="http://www.w3.org/2000/svg"><path d="M138.094 40.5h-9.282V23.062A2.812 2.812 0 0 0 126 20.25h-15.75a2.812 2.812 0 0 0-2.812 2.812V40.5h-9V36a2.813 2.813 0 0 0-5.625 0v4.5H70.829v-7.313a2.813 2.813 0 0 0-2.813-2.812H46.641a2.813 2.813 0 0 0-2.812 2.813V40.5h-5.47V21.937a2.813 2.813 0 0 0-2.813-2.812H14.171a2.813 2.813 0 0 0-2.812 2.813V40.5H5.906a2.813 2.813 0 0 0-2.812 2.812V58.5c0 .776.314 1.48.824 1.988l51.77 51.771v28.929a2.811 2.811 0 0 0 3.751 2.651l13.5-4.785a2.813 2.813 0 0 0-1.879-5.302l-9.748 3.455v-26.114c0-.745-.296-1.461-.823-1.988L12.697 61.312h118.607L116.136 76.48a2.813 2.813 0 0 0 3.978 3.977l19.969-19.968c.509-.51.823-1.213.823-1.99V43.313a2.812 2.812 0 0 0-2.812-2.812zm-25.032-14.625h10.126V40.5h-10.126V25.875zM49.454 36h15.75v4.5h-15.75V36zm-32.47-11.25h15.75V40.5h-15.75V24.75zM135.28 55.687H8.719v-9.562H135.28v9.562z" fill="#000"/><path d="M110.551 86.043a2.834 2.834 0 0 0-1.989-.824c-.739 0-1.465.3-1.988.824a2.835 2.835 0 0 0-.824 1.988c0 .74.301 1.466.824 1.988a2.834 2.834 0 0 0 1.988.825c.74 0 1.466-.301 1.989-.825a2.833 2.833 0 0 0 .824-1.988c0-.74-.301-1.465-.824-1.988z" fill="#CD071B"/><path d="M97.313 117.455c-1.862 0-3.376-1.257-3.376-2.803 0-1.545 1.514-2.803 3.376-2.803 1.86 0 3.375 1.258 3.375 2.803a2.813 2.813 0 1 0 5.624 0c0-3.728-2.599-6.897-6.19-8.005a2.81 2.81 0 0 0-5.62 0c-3.59 1.108-6.19 4.277-6.19 8.005 0 4.647 4.038 8.429 9 8.429 1.862 0 3.376 1.257 3.376 2.803 0 1.545-1.514 2.802-3.376 2.802-1.86 0-3.374-1.257-3.374-2.802a2.813 2.813 0 1 0-5.626 0c0 3.729 2.602 6.899 6.194 8.006a2.81 2.81 0 0 0 2.806 2.691 2.81 2.81 0 0 0 2.807-2.691c3.592-1.108 6.193-4.277 6.193-8.007 0-4.647-4.037-8.428-9-8.428z" fill="#CD071B"/><path d="M97.313 96.75c-13.027 0-23.626 10.598-23.626 23.625S84.287 144 97.314 144c13.026 0 23.625-10.598 23.625-23.625s-10.6-23.625-23.627-23.625zm0 41.625c-9.926 0-18-8.075-18-18s8.074-18 18-18c9.925 0 17.999 8.075 17.999 18s-8.074 18-18 18z" fill="#CD071B"/><path d="M66.043 70.012a2.828 2.828 0 0 0-1.988-.825c-.74 0-1.466.301-1.989.825A2.834 2.834 0 0 0 61.242 72c0 .74.3 1.465.824 1.988a2.834 2.834 0 0 0 1.989.825c.742 0 1.465-.301 1.988-.825A2.82 2.82 0 0 0 66.867 72a2.82 2.82 0 0 0-.824-1.988z" fill="#CD071B"/><path d="M50.571 70.012a2.833 2.833 0 0 0-1.988-.825 2.83 2.83 0 0 0-1.988.825A2.833 2.833 0 0 0 45.77 72c0 .74.301 1.465.825 1.988a2.833 2.833 0 0 0 1.988.825 2.83 2.83 0 0 0 1.988-.825A2.833 2.833 0 0 0 51.396 72a2.83 2.83 0 0 0-.825-1.988z" fill="#CD071B"/><path d="M81.517 70.012a2.84 2.84 0 0 0-1.991-.825 2.83 2.83 0 0 0-1.988.825A2.832 2.832 0 0 0 76.716 72c0 .74.299 1.465.822 1.988a2.838 2.838 0 0 0 1.988.825c.743 0 1.465-.301 1.991-.825A2.833 2.833 0 0 0 82.341 72c0-.74-.3-1.465-.824-1.988z" fill="#CD071B"/><path d="M66.043 93.355a2.831 2.831 0 0 0-1.988-.824c-.74 0-1.466.3-1.989.824a2.834 2.834 0 0 0-.824 1.989c0 .74.3 1.465.824 1.988a2.834 2.834 0 0 0 1.989.824c.742 0 1.465-.3 1.988-.824a2.82 2.82 0 0 0 .824-1.988c0-.74-.298-1.466-.824-1.989z" fill="#CD071B"/><path d="M81.515 93.355a2.828 2.828 0 0 0-1.986-.824c-.74 0-1.465.3-1.991.824a2.832 2.832 0 0 0-.822 1.989c0 .74.299 1.465.822 1.988a2.84 2.84 0 0 0 1.99.824 2.822 2.822 0 0 0 2.813-2.812c0-.74-.3-1.466-.826-1.989z" fill="#CD071B"/><path d="M73.988 81.683A2.833 2.833 0 0 0 72 80.86c-.74 0-1.465.301-1.988.824a2.834 2.834 0 0 0-.825 1.989c0 .74.301 1.465.825 1.988a2.834 2.834 0 0 0 1.988.824c.74 0 1.465-.3 1.988-.824a2.833 2.833 0 0 0 .825-1.988c0-.74-.301-1.465-.825-1.989z" fill="#CD071B"/><path d="M60.137 81.683a2.828 2.828 0 0 0-1.989-.824c-.74 0-1.462.301-1.988.824a2.834 2.834 0 0 0-.824 1.989c0 .74.3 1.465.824 1.988a2.839 2.839 0 0 0 1.988.824c.743 0 1.466-.3 1.989-.824a2.82 2.82 0 0 0 .824-1.988c0-.74-.298-1.465-.824-1.989z" fill="#CD071B"/><path d="M87.837 81.683a2.827 2.827 0 0 0-1.985-.824 2.83 2.83 0 0 0-1.989.824 2.822 2.822 0 0 0-.824 1.989c0 .74.298 1.465.824 1.988a2.829 2.829 0 0 0 1.989.824c.74 0 1.462-.3 1.985-.824a2.82 2.82 0 0 0 .825-1.988c0-.74-.299-1.465-.825-1.989z" fill="#CD071B"/><path d="M97.405 70.012a2.833 2.833 0 0 0-1.988-.825 2.83 2.83 0 0 0-1.988.825A2.835 2.835 0 0 0 92.604 72c0 .74.301 1.465.825 1.988a2.834 2.834 0 0 0 1.988.825 2.83 2.83 0 0 0 1.988-.825A2.834 2.834 0 0 0 98.23 72c0-.74-.302-1.465-.825-1.988z" fill="#CD071B"/><path d="M95.625 0H74.25a2.813 2.813 0 0 0-2.813 2.813v21.375A2.813 2.813 0 0 0 74.25 27h21.375a2.813 2.813 0 0 0 2.813-2.813V2.813A2.813 2.813 0 0 0 95.624 0zm-2.813 21.375h-15.75V5.625h15.75v15.75z" fill="#CD071B"/><path d="M46.642 0a2.813 2.813 0 0 0-2.813 2.813v8.906a2.813 2.813 0 0 0 5.625 0V2.813A2.813 2.813 0 0 0 46.642 0z" fill="#000"/><path d="M48.631 19.901a2.832 2.832 0 0 0-1.988-.824c-.743 0-1.466.3-1.989.824a2.822 2.822 0 0 0-.824 1.989 2.818 2.818 0 0 0 2.813 2.813c.74 0 1.462-.3 1.988-.825a2.834 2.834 0 0 0 .824-1.988c0-.74-.3-1.466-.824-1.989z" fill="#000"/><path d="M24.859 0a2.813 2.813 0 0 0-2.813 2.813v7.03a2.813 2.813 0 0 0 5.625 0v-7.03A2.813 2.813 0 0 0 24.86 0z" fill="#CD071B"/><path d="M118.12 0a2.813 2.813 0 0 0-2.813 2.813v7.03a2.813 2.813 0 0 0 5.625 0v-7.03A2.812 2.812 0 0 0 118.12 0z" fill="#000"/><path d="M57.938 7.031a2.813 2.813 0 0 0-2.813 2.813V18a2.813 2.813 0 0 0 5.625 0V9.844a2.813 2.813 0 0 0-2.813-2.813z" fill="#CD071B"/></svg>