<svg width="112" height="112" viewBox="0 0 112 112" fill="none" xmlns="http://www.w3.org/2000/svg"><path d="M56 35.27c9.724 0 17.635-7.91 17.635-17.635C73.635 7.911 65.724 0 56 0c-9.724 0-17.635 7.911-17.635 17.635 0 9.724 7.911 17.635 17.635 17.635zm0-31.696c7.753 0 14.06 6.308 14.06 14.061S63.754 31.695 56 31.695s-14.06-6.307-14.06-14.06S48.247 3.575 56 3.575z" fill="#000"/><path d="M56 42.42c14.253 0 25.956 11.125 26.878 25.149H41.573a1.787 1.787 0 1 0 0 3.574h43.151c.987 0 1.788-.8 1.788-1.787 0-16.824-13.688-30.511-30.512-30.511-16.824 0-30.512 13.687-30.512 30.511 0 .987.8 1.787 1.788 1.787h7.149a1.787 1.787 0 1 0 0-3.574H29.12c.923-14.024 12.626-25.15 26.879-25.15z" fill="#000"/><path d="M33.459 90.008l-9.804-1.645-4.595-8.816a1.787 1.787 0 0 0-3.17 0l-4.594 8.816-9.805 1.645a1.788 1.788 0 0 0-.98 3.014l6.965 7.095-1.464 9.833a1.787 1.787 0 0 0 2.564 1.863l8.899-4.432 8.899 4.432a1.792 1.792 0 0 0 1.847-.154 1.789 1.789 0 0 0 .717-1.71l-1.465-9.833 6.965-7.094a1.787 1.787 0 0 0-.98-3.014zm-9.16 8.24c-.392.4-.575.96-.492 1.515l1.09 7.321-6.625-3.3a1.793 1.793 0 0 0-1.593 0l-6.627 3.3 1.091-7.321a1.786 1.786 0 0 0-.492-1.515l-5.186-5.282 7.3-1.226a1.788 1.788 0 0 0 1.29-.936l3.42-6.565 3.421 6.564c.26.498.736.844 1.29.937l7.3 1.226-5.187 5.282z" fill="#CD071B"/><path d="M71.984 90.008l-9.804-1.645-4.595-8.816a1.787 1.787 0 0 0-3.17 0l-4.595 8.816-9.804 1.645a1.788 1.788 0 0 0-.98 3.014l6.965 7.095-1.464 9.833a1.787 1.787 0 0 0 2.564 1.863L56 107.381l8.899 4.432a1.793 1.793 0 0 0 1.847-.154c.54-.392.816-1.051.717-1.71L66 100.116l6.965-7.094a1.787 1.787 0 0 0-.98-3.014zm-9.16 8.24c-.392.4-.575.96-.492 1.515l1.09 7.321-6.625-3.3a1.799 1.799 0 0 0-1.594 0l-6.626 3.3 1.09-7.321a1.786 1.786 0 0 0-.491-1.515l-5.186-5.282 7.3-1.226a1.788 1.788 0 0 0 1.289-.936L56 84.24l3.421 6.564c.259.497.736.843 1.29.936l7.3 1.226-5.187 5.282z" fill="#CD071B"/><path d="M111.913 91.218a1.788 1.788 0 0 0-1.405-1.21l-9.804-1.645-4.594-8.816a1.787 1.787 0 0 0-3.17 0l-4.595 8.816-9.804 1.645a1.787 1.787 0 0 0-.98 3.014l6.965 7.095-1.465 9.833a1.787 1.787 0 0 0 2.564 1.863l8.9-4.432 8.898 4.432a1.796 1.796 0 0 0 1.847-.154 1.79 1.79 0 0 0 .718-1.71l-1.465-9.833 6.965-7.094c.467-.475.63-1.17.425-1.804zm-10.564 7.03c-.392.4-.575.96-.492 1.515l1.091 7.321-6.626-3.3a1.799 1.799 0 0 0-1.594 0l-6.626 3.3 1.091-7.321a1.786 1.786 0 0 0-.492-1.515l-5.186-5.282 7.3-1.226a1.788 1.788 0 0 0 1.29-.936l3.42-6.565 3.421 6.564c.26.498.737.844 1.29.937l7.299 1.226-5.186 5.282z" fill="#CD071B"/><path d="M56 25.738a8.103 8.103 0 0 0 6.115-2.793 1.787 1.787 0 0 0-2.698-2.345A4.53 4.53 0 0 1 56 22.164a4.53 4.53 0 0 1-3.417-1.564 1.787 1.787 0 0 0-2.698 2.345A8.104 8.104 0 0 0 56 25.738z" fill="#000"/></svg>