<svg width="112" height="112" viewBox="0 0 112 112" fill="none" xmlns="http://www.w3.org/2000/svg"><g clip-path="url(#clip0)"><path d="M110.405 76.762h-.002v-.006l-7.228-1.031a1.859 1.859 0 0 1-.853-3.329l2.37-1.773h4.958a1.859 1.859 0 0 0 1.859-1.858V1.859A1.859 1.859 0 0 0 109.65.001H1.858A1.859 1.859 0 0 0 0 1.859v66.906c0 1.026.832 1.858 1.858 1.858h4.807L4.26 73.026a1.859 1.859 0 0 0-.215 2.368l3.531 5.137-6.109 1.282A1.858 1.858 0 0 0 0 83.633v7.434c0 .879.615 1.638 1.476 1.819l6.108 1.284-3.53 5.135a1.859 1.859 0 0 0 .215 2.368l5.575 5.575c.634.634 1.63.724 2.368.216l5.135-3.531 1.284 6.109a1.858 1.858 0 0 0 1.812 1.468h7.434a1.86 1.86 0 0 0 1.82-1.476l1.284-6.11 5.135 3.54a1.858 1.858 0 0 0 2.368-.216l5.575-5.575a1.86 1.86 0 0 0 .216-2.368l-3.532-5.137 6.11-1.282a1.858 1.858 0 0 0 1.468-1.82v-7.433a1.86 1.86 0 0 0-1.476-1.82l-6.109-1.284 3.531-5.135a1.859 1.859 0 0 0-.215-2.368l-2.396-2.403h7.67l-1.487 10.343a1.859 1.859 0 0 0 1.596 2.11l7.228 1.03a1.859 1.859 0 0 1 .853 3.33l-5.85 4.374a1.858 1.858 0 0 0-.372 2.602l6.69 8.921a1.859 1.859 0 0 0 2.602.371l5.842-4.382a1.858 1.858 0 0 1 2.955 1.751l-1.034 7.227a1.86 1.86 0 0 0 1.576 2.104h.002l11.038 1.576a1.859 1.859 0 0 0 2.104-1.576l1.033-7.228a1.858 1.858 0 0 1 3.326-.853l4.381 5.842c.616.821 1.78.987 2.602.371l8.921-6.69a1.859 1.859 0 0 0 .371-2.602l-4.382-5.841a1.858 1.858 0 0 1 1.751-2.955l7.227 1.031a1.859 1.859 0 0 0 2.104-1.575l1.578-11.038a1.859 1.859 0 0 0-1.576-2.104zm-65.801 8.38v4.416l-4.634.973a3.717 3.717 0 0 0-2.295 5.749l2.654 3.86-3.379 3.378-3.86-2.661a3.717 3.717 0 0 0-5.746 2.295l-.976 4.641h-4.416l-.975-4.631a3.717 3.717 0 0 0-5.738-2.298l-3.869 2.654-3.379-3.378 2.662-3.86a3.717 3.717 0 0 0-2.295-5.749l-4.641-.974v-4.415l4.633-.974a3.717 3.717 0 0 0 2.295-5.74L7.991 74.56l3.38-3.38 3.868 2.655a3.717 3.717 0 0 0 5.747-2.295l.966-4.634h4.416l.976 4.632a3.717 3.717 0 0 0 5.746 2.297l3.86-2.654 3.379 3.379-2.654 3.869a3.717 3.717 0 0 0 2.295 5.748l4.634.965zM32.09 70.008l-1.115.766-1.284-6.109a1.859 1.859 0 0 0-1.814-1.476H24.16V50.18h7.434v18.585c.003.462.18.906.496 1.243zm8.797-30.979a1.859 1.859 0 0 0-1.859 1.859v26.018h-3.717V48.321a1.859 1.859 0 0 0-1.858-1.858H22.302a1.859 1.859 0 0 0-1.859 1.858V63.19c-.879 0-1.638.616-1.82 1.476l-1.283 6.11-5.135-3.54a1.82 1.82 0 0 0-1.054-.308v-.02H3.717V3.716h104.075V64.43l-5.947-7.93a1.859 1.859 0 0 0-2.602-.372l-5.841 4.382a1.858 1.858 0 0 1-2.955-1.75l1.033-7.228a1.836 1.836 0 0 0-.414-1.433v-33.37a1.859 1.859 0 0 0-1.859-1.86h-11.15a1.859 1.859 0 0 0-1.86 1.86v36.637l-.47 3.29a1.844 1.844 0 0 1-3.246.93V26.02a1.859 1.859 0 0 0-1.859-1.859h-11.15a1.859 1.859 0 0 0-1.86 1.859v31.13l-1.114.836a1.858 1.858 0 0 0-.372 2.602l4.382 5.84a1.858 1.858 0 0 1-1.75 2.956l-4.862-.694V40.888a1.859 1.859 0 0 0-1.858-1.859H40.886zm46.462-20.443v30.479l-7.434-1.063V18.586h7.434zm-18.585 9.292V52.66l-.744-.992a1.858 1.858 0 0 0-2.602-.372l-4.088 3.067V27.878h7.434zM50.179 66.906h-7.434v-24.16h7.434v24.16zm56.806 20.63l-5.389-.77a5.575 5.575 0 0 0-5.249 8.865l3.268 4.356-5.947 4.461-3.266-4.355a5.576 5.576 0 0 0-9.982 2.556l-.77 5.389-7.355-1.052.77-5.389a5.576 5.576 0 0 0-8.864-5.249l-4.358 3.268-4.46-5.948 4.352-3.265a5.575 5.575 0 0 0-2.555-9.98l-5.39-.771 1.052-7.358 5.39.77a5.575 5.575 0 0 0 5.248-8.865l-3.265-4.355 5.947-4.46 3.265 4.354a5.575 5.575 0 0 0 9.982-2.555l.77-5.39 7.357 1.052-.77 5.39a5.576 5.576 0 0 0 8.864 5.248l4.356-3.267 4.461 5.947-4.353 3.265a5.575 5.575 0 0 0 2.556 9.98l5.389.772-1.054 7.355z" fill="#000"/><path d="M24.16 76.198c-6.158 0-11.15 4.992-11.15 11.15 0 6.16 4.992 11.152 11.15 11.152 6.159 0 11.151-4.993 11.151-11.151-.006-6.156-4.995-11.145-11.15-11.151zm0 18.585a7.434 7.434 0 1 1 0-14.868 7.434 7.434 0 0 1 0 14.868z" fill="#CD071B"/><path d="M79.915 65.047c-8.212 0-14.868 6.657-14.868 14.868s6.657 14.868 14.868 14.868c8.21 0 14.868-6.657 14.868-14.868-.01-8.208-6.66-14.859-14.868-14.868zm0 26.019c-6.159 0-11.151-4.993-11.151-11.151 0-6.159 4.992-11.15 11.15-11.15 6.16 0 11.152 4.991 11.152 11.15-.006 6.156-4.995 11.145-11.151 11.15z" fill="#CD071B"/><path d="M74.711 7.471l-9.292-1.858-.744 3.642 4.505.904-49.677 29.124 1.88 3.208 50.32-29.498-1.044 5.22 3.643.729 1.859-9.293a1.86 1.86 0 0 0-1.45-2.178z" fill="#CD071B"/><path d="M11.15 50.18H7.435v13.009h3.717v-13.01z" fill="#CD071B"/><path d="M11.15 42.745H7.435v3.717h3.717v-3.717z" fill="#CD071B"/><path d="M104.075 24.16h-3.717v27.878h3.717V24.16z" fill="#CD071B"/><path d="M104.075 16.727h-3.717v3.716h3.717v-3.716z" fill="#CD071B"/><path d="M46.462 105.934h-3.717v3.717h3.717v-3.717z" fill="#000"/><path d="M53.896 105.934h-3.717v3.717h3.717v-3.717z" fill="#000"/><path d="M61.33 105.934h-3.717v3.717h3.717v-3.717z" fill="#000"/></g><defs><clipPath id="clip0"><path fill="#fff" d="M0 0h112v112H0z"/></clipPath></defs></svg>