<svg width="148" height="148" viewBox="0 0 148 148" fill="none" xmlns="http://www.w3.org/2000/svg"><g clip-path="url(#clip0)"><path d="M66.84 47.743a2.387 2.387 0 1 1-4.774 0 2.387 2.387 0 0 1 4.774 0z" fill="#000"/><path d="M42.969 47.743a2.387 2.387 0 1 1-4.774 0 2.387 2.387 0 0 1 4.774 0z" fill="#000"/><path d="M52.518 71.613c5.266 0 9.548-4.282 9.548-9.548h-4.774a4.779 4.779 0 0 1-4.774 4.774 4.779 4.779 0 0 1-4.775-4.774H42.97c0 5.266 4.283 9.548 9.549 9.548z" fill="#000"/><path d="M132.28.001H90.71v76.386h57.291V15.723L132.28.001zm1.398 8.15l6.173 6.172h-6.173V8.151zM95.485 71.613V4.775h33.419v14.322h14.322v52.516h-47.74z" fill="#000"/><path d="M116.969 51.53l-5.474-5.475-3.375 3.375 8.849 8.85 23.171-23.172-3.376-3.376-19.795 19.797z" fill="#CD071B"/><path d="M133.678 62.065h-28.645V40.58h19.097v-4.774h-23.871V66.84h38.193V47.743h-4.774v14.322z" fill="#CD071B"/><path d="M100.259 9.55h4.774v4.773h-4.774V9.55z" fill="#CD071B"/><path d="M109.807 9.55h14.323v4.773h-14.323V9.55z" fill="#CD071B"/><path d="M100.259 19.098h4.774v4.774h-4.774v-4.774z" fill="#CD071B"/><path d="M109.807 19.098h14.323v4.774h-14.323v-4.774z" fill="#CD071B"/><path d="M109.807 105.032h9.548a2.389 2.389 0 0 1 2.388 2.387h4.774c0-3.947-3.214-7.161-7.162-7.161h-2.387v-2.387h-4.774v2.387h-2.387c-3.949 0-7.161 3.214-7.161 7.161v2.387c0 3.949 3.212 7.162 7.161 7.162h9.548a2.389 2.389 0 0 1 2.388 2.387v2.387a2.388 2.388 0 0 1-2.388 2.387h-9.548a2.387 2.387 0 0 1-2.387-2.387h-4.774a7.169 7.169 0 0 0 7.161 7.161h2.387v2.387h4.774v-2.387h2.387c3.948 0 7.162-3.212 7.162-7.161v-2.387c0-3.948-3.214-7.161-7.162-7.161h-9.548a2.388 2.388 0 0 1-2.387-2.388v-2.387a2.388 2.388 0 0 1 2.387-2.387z" fill="#CD071B"/><path d="M139.733 100.927l3.17-5.284-9.386-9.386-5.285 3.17a28.327 28.327 0 0 0-5.521-2.29l-1.492-5.975h-13.277l-1.492 5.978a28.346 28.346 0 0 0-5.521 2.29l-5.285-3.171-2.594 2.594c-.483-.143-.96-.3-1.449-.398L69.227 83.98v-7.495a24.815 24.815 0 0 0 5.913-9.76c6.041-.586 10.796-5.632 10.796-11.822V34.342c0-18.156-13.77-33.211-31.35-34.278a33.296 33.296 0 0 0-22.77 7.151c-5.857 4.65-12.255 9.516-19.32 13.578L8.335 23.19l1.737 2.172a34.2 34.2 0 0 0 9.027 7.901v21.641c0 6.133 4.666 11.14 10.621 11.803a23.976 23.976 0 0 0 6.088 9.987v7.285l-22.374 4.473C5.649 90.011.002 96.905.002 104.84V148h105.031v-6.478c.472.166.936.36 1.417.501l1.492 5.977h13.277l1.492-5.977a28.361 28.361 0 0 0 5.521-2.289l5.285 3.17 9.386-9.386-3.17-5.285a28.38 28.38 0 0 0 2.29-5.521L148 121.22v-13.277l-5.977-1.492a28.283 28.283 0 0 0-2.29-5.524zm-68.62-11.704l-5.33 14.21-9.282-7.736 10.84-7.226 3.772.752zM49.815 114.58h5.407l4.09 28.645H45.724l4.092-28.645zm6.001-4.774h-6.598l-2.989-5.975 6.288-5.24 6.285 5.238-2.986 5.977zm-15.234-29.47a23.613 23.613 0 0 0 11.911 3.212 25.5 25.5 0 0 0 1.607-.05c3.764-.244 7.273-1.406 10.353-3.246v4.407l-11.936 7.956-11.935-7.956v-4.323zm35.645-18.66c.098-.9.161-1.81.161-2.735v-10.76c2.77.989 4.774 3.615 4.774 6.722 0 3.168-2.079 5.83-4.935 6.773zm-41.444-50.72c5.52-4.378 12.466-6.544 19.515-6.125 15.064.911 26.864 13.875 26.864 29.51V45.42c-1.394-1.056-3.001-1.845-4.774-2.207v-2.63c0-3.948-3.213-7.162-7.161-7.162H36.77c-8.045 0-15.598-3.226-21.12-8.934 7.027-4.125 13.345-8.933 19.133-13.53zm-6.136 26.271v5.982c-1.774.364-3.38 1.15-4.774 2.206v-9.748a34.204 34.204 0 0 0 4.774 1.56zm-4.774 17.676c0-3.107 2.002-5.733 4.774-6.722v11.496c0 .665.048 1.323.102 1.98-2.824-.96-4.876-3.607-4.876-6.754zm9.548-16.87c1.107.108 2.224.16 3.349.16h32.457a2.389 2.389 0 0 1 2.387 2.388v18.36c0 10.45-7.828 19.146-17.823 19.79-5.363.344-10.44-1.47-14.331-5.117-3.896-3.65-6.04-8.6-6.04-13.937V38.035zm4.27 50.435l10.84 7.226-9.283 7.736-5.328-14.21 3.772-.752zM4.777 104.84c0-5.67 4.034-10.591 9.596-11.704l14.806-2.962 7.965 21.233 5.32-4.436 2.812 5.621-4.378 30.634H23.873V107.42h-4.774v35.806H4.776V104.84zm59.361 38.386l-4.376-30.631 2.813-5.622 5.32 4.436 7.964-21.233 13.224 2.645-2.824 2.824 3.17 5.285a28.388 28.388 0 0 0-2.289 5.521l-5.977 1.492v13.277l5.977 1.492a28.363 28.363 0 0 0 2.29 5.521l-3.17 5.285 9.385 9.386 4.615-2.769v3.091H64.137zm79.089-25.735l-5.122 1.282-.34 1.406a23.755 23.755 0 0 1-2.835 6.834l-.755 1.234 2.721 4.531-4.117 4.117-4.53-2.721-1.235.755a23.866 23.866 0 0 1-6.835 2.836l-1.405.338-1.282 5.123h-5.82l-1.282-5.123-1.406-.338a23.757 23.757 0 0 1-6.834-2.836l-1.234-.755-4.53 2.721-4.118-4.117 2.721-4.531-.754-1.234a23.826 23.826 0 0 1-2.836-6.834l-.339-1.406-5.123-1.282v-5.819l5.123-1.283.34-1.405a23.695 23.695 0 0 1 2.835-6.835l.754-1.233-2.721-4.532 4.118-4.117 4.53 2.72 1.234-.753a23.891 23.891 0 0 1 6.834-2.836l1.406-.34 1.282-5.122h5.82l1.282 5.123 1.405.339a23.762 23.762 0 0 1 6.835 2.836l1.235.754 4.53-2.72 4.117 4.116-2.721 4.532.755 1.233a23.892 23.892 0 0 1 2.835 6.835l.34 1.405 5.122 1.283v5.819z" fill="#000"/></g><defs><clipPath id="clip0"><path fill="#fff" d="M0 0h148v148H0z"/></clipPath></defs></svg>