<svg width="98" height="98" viewBox="0 0 98 98" fill="none" xmlns="http://www.w3.org/2000/svg"><path d="M63.215 17.757l-2.773.744 4.021 15.01-13.298 13.298-11.678-3.129L11.43 71.737l-4.888-1.31 21.99-21.989-2.031-2.03-21.989 21.99-1.31-4.888 4.76-4.76 4.97-.761.674-4.395L18 52.92l.675-4.396 4.395-.673.762-4.972 5.825-5.826 3.897 3.896 2.03-2.03-4.639-4.64-2.815-10.505 13.299-13.3 13.908 3.728.743-2.774-15.509-4.156-15.643 15.644 3.129 11.677-6.922 6.922-.584 3.817-4.394.674-.675 4.395-4.395.674-.673 4.394-3.816.584L0 62.65l2.597 9.692 9.691 2.596 28.057-28.056 11.678 3.129 15.643-15.643-4.451-16.612z" fill="#000"/><path d="M54.31 17.204a5.329 5.329 0 0 0-6.961 5.064 5.329 5.329 0 0 0 5.322 5.323 5.328 5.328 0 0 0 5.322-5.323 5.299 5.299 0 0 0-1.269-3.445 12.924 12.924 0 0 1 9.32-3.966c7.13 0 12.93 5.8 12.93 12.929 0 .665-.051 1.323-.15 1.97a6.352 6.352 0 0 0-7.527 6.233 6.352 6.352 0 0 0 6.343 6.345 6.352 6.352 0 0 0 6.345-6.345 6.337 6.337 0 0 0-2.465-5.016c.215-1.04.325-2.106.325-3.187 0-8.712-7.088-15.8-15.8-15.8-4.623 0-8.828 2-11.736 5.218zm23.33 15.312c.144 0 .286.01.425.027a12.968 12.968 0 0 1-3.532 4.996 3.446 3.446 0 0 1-.366-1.55 3.477 3.477 0 0 1 3.473-3.473zm3.473 3.474a3.477 3.477 0 0 1-4.312 3.37 15.844 15.844 0 0 0 3.736-5.284 3.45 3.45 0 0 1 .576 1.914zM52.385 19.833a15.694 15.694 0 0 0-1.633 3.96 2.439 2.439 0 0 1-.532-1.524c0-1.256.948-2.293 2.165-2.435zm2.737 2.435a2.456 2.456 0 0 1-1.604 2.3 12.83 12.83 0 0 1 1.375-3.334c.146.315.229.665.229 1.034z" fill="#000"/><path d="M64.662 79.817H90.62v-34.33H64.662v34.33zm2.87-31.46H87.75v28.589H67.533V48.357z" fill="#CD071B"/><path d="M70.724 51.799h2.87v21.704h-2.87V51.8z" fill="#CD071B"/><path d="M76.205 51.799h2.871v21.704h-2.87V51.8z" fill="#CD071B"/><path d="M81.686 51.799h2.872v21.704h-2.872V51.8z" fill="#CD071B"/><path d="M67.94 28.226l7.09-5.327 1.724 2.296-7.09 5.326-1.725-2.295z" fill="#000"/><path d="M85.147 26.576l-1.725 2.296 11.707 8.794V87.84H60.152V46.7h-2.87v44.01H98V36.234l-12.853-9.657z" fill="#000"/><path d="M32.637 33.22l-2.378-8.875 4.387-4.386 2.03 2.03-3.214 3.215 1.948 7.273-2.773.742zm5.393-12.585L36 18.605l2.03-2.03 2.03 2.03-2.03 2.03zm3.384-3.383l-2.03-2.03 2.03-2.03 2.03 2.03-2.03 2.03z" fill="#000"/><path d="M91.784 85.93H73.069v-2.87h18.715v2.87zm-20.63 0h-2.87v-2.87h2.87v2.87zm-4.785 0h-2.871v-2.87h2.87v2.87z" fill="#CD071B"/></svg>