<svg width="98" height="98" viewBox="0 0 98 98" fill="none" xmlns="http://www.w3.org/2000/svg"><g clip-path="url(#clip0)"><path d="M68.17 78.4h-14.7V65.333a8.167 8.167 0 0 0-8.166-8.166h-9.8V48.2l22.18-15.844c.36-.254.602-.643.67-1.078a1.633 1.633 0 0 0-.31-1.225l-4.9-6.533a1.633 1.633 0 0 0-2.238-.36L34.165 34.742c2.96-5.577.838-12.499-4.739-15.459-5.577-2.96-12.499-.839-15.46 4.739a11.433 11.433 0 0 0 2.118 13.546H14.27c-.461 0-.9.197-1.209.539L2.511 49.833a8.167 8.167 0 0 0 .326 11.237l8.64 8.69c.34.34.812.513 1.291.473a1.634 1.634 0 0 0 1.209-.686l1.927-2.727v29.547c0 .902.731 1.633 1.633 1.633h9.8c.902 0 1.634-.731 1.634-1.633V70.233h11.433V78.4h-4.9c-.902 0-1.633.731-1.633 1.633v16.334c0 .902.731 1.633 1.633 1.633h32.667c.902 0 1.633-.731 1.633-1.633V80.033c0-.902-.731-1.633-1.633-1.633zm-52.266-49a8.167 8.167 0 1 1 16.334 0 8.167 8.167 0 0 1-16.334 0zm12.054 11.433l-2.254 4.508-2.254-4.508h4.508zM15.904 58.326l-2.613-2.793 2.613-2.613v5.406zm11.433 8.64c-.902 0-1.633.732-1.633 1.634v26.133h-6.533V49a1.633 1.633 0 0 0-1.013-1.503 1.633 1.633 0 0 0-1.78.343l-6.534 6.534a1.633 1.633 0 0 0 0 2.286l5.341 5.57-2.76 3.855L5.108 58.8a4.9 4.9 0 0 1-.18-6.778l10.078-11.189h4.785l4.46 8.902a1.633 1.633 0 0 0 2.907 0l4.72-9.424 19.6-13.573 2.956 3.936-21.51 15.37a1.633 1.633 0 0 0-.687 1.323V58.8c0 .902.732 1.633 1.634 1.633h11.433a4.9 4.9 0 0 1 4.9 4.9V78.4h-6.533v-9.8c0-.902-.732-1.633-1.634-1.633h-14.7zm39.2 27.767h-29.4V81.667h29.4v13.066z" fill="#000"/><path d="M95.938 13.067c-6.315 0-11.434-5.12-11.434-11.434a1.633 1.633 0 0 0-3.266 0c0 6.315-5.12 11.434-11.434 11.434a1.633 1.633 0 0 0 0 3.266c6.315 0 11.434 5.12 11.434 11.434a1.633 1.633 0 0 0 3.266 0c0-6.315 5.12-11.434 11.434-11.434a1.633 1.633 0 0 0 0-3.266zm-13.067 7.97a14.829 14.829 0 0 0-6.337-6.337 14.83 14.83 0 0 0 6.337-6.337 14.83 14.83 0 0 0 6.337 6.337 14.83 14.83 0 0 0-6.337 6.337z" fill="#CD071B"/><path d="M55.322 41.147L50.87 44.41l1.932 2.634 4.452-3.264-1.932-2.634z" fill="#CD071B"/><path d="M75.376 26.447L59.047 38.429l1.933 2.633L77.308 29.08l-1.932-2.633z" fill="#CD071B"/><path d="M68.89 18.237l-9.8 6.533 1.812 2.717 9.798-6.532-1.812-2.718z" fill="#CD071B"/></g><defs><clipPath id="clip0"><path fill="#fff" d="M0 0h98v98H0z"/></clipPath></defs></svg>