<svg width="148" height="148" viewBox="0 0 148 148" fill="none" xmlns="http://www.w3.org/2000/svg"><g clip-path="url(#clip0)"><path d="M104.404 70.86l-4.304-1.9a28.483 28.483 0 0 0-.641-2.064l2.389-4.121a2.472 2.472 0 0 0 .02-2.441 32.79 32.79 0 0 0-4.196-5.865 2.465 2.465 0 0 0-2.39-.759l-4.526 1.037a27.487 27.487 0 0 0-1.655-1.22l-.438-4.792a2.47 2.47 0 0 0-1.42-2.013 31.471 31.471 0 0 0-6.759-2.27 2.478 2.478 0 0 0-2.44.885l-3.16 3.996h-1.768l-3.16-3.996a2.474 2.474 0 0 0-2.44-.885c-2.333.498-4.6 1.26-6.76 2.27a2.466 2.466 0 0 0-1.419 2.014l-.439 4.79c-.57.39-1.121.797-1.652 1.22l-4.529-1.037a2.465 2.465 0 0 0-2.39.76 32.718 32.718 0 0 0-4.195 5.863 2.472 2.472 0 0 0 .02 2.442l2.391 4.12a26.944 26.944 0 0 0-.638 2.046l-4.473 1.907a2.468 2.468 0 0 0-1.499 2.27v6.7c0 .989.59 1.882 1.498 2.27l4.474 1.906c.192.713.404 1.391.638 2.045l-2.392 4.12a2.472 2.472 0 0 0-.02 2.442 32.778 32.778 0 0 0 4.197 5.865 2.466 2.466 0 0 0 2.39.758l4.525-1.037c.53.423 1.084.831 1.655 1.22l.439 4.792a2.47 2.47 0 0 0 1.419 2.012 31.418 31.418 0 0 0 6.759 2.272 2.48 2.48 0 0 0 2.44-.886l3.16-3.996h1.769l3.16 3.996a2.47 2.47 0 0 0 2.44.886c2.332-.499 4.6-1.26 6.76-2.271a2.47 2.47 0 0 0 1.419-2.013l.438-4.79c.571-.39 1.122-.797 1.652-1.22l4.53 1.037a2.462 2.462 0 0 0 2.389-.76 32.74 32.74 0 0 0 4.196-5.864 2.471 2.471 0 0 0-.019-2.441l-2.392-4.12c.236-.66.448-1.346.643-2.066l4.305-1.9a2.468 2.468 0 0 0 1.469-2.256v-6.702c0-.977-.576-1.862-1.47-2.257zm-3.463 7.35l-3.939 1.738a2.468 2.468 0 0 0-1.407 1.705 22.8 22.8 0 0 1-1.141 3.66 2.47 2.47 0 0 0 .144 2.182l2.257 3.89a27.783 27.783 0 0 1-1.93 2.697l-4.263-.977a2.456 2.456 0 0 0-2.185.554 22.14 22.14 0 0 1-3.023 2.234 2.478 2.478 0 0 0-1.159 1.874l-.414 4.528a26.58 26.58 0 0 1-2.946 1.004l-2.922-3.695a2.466 2.466 0 0 0-1.934-.937H71.92c-.754 0-1.467.345-1.934.937l-2.922 3.695a26.688 26.688 0 0 1-2.949-1.006l-.414-4.528a2.472 2.472 0 0 0-1.157-1.871 22.349 22.349 0 0 1-3.023-2.236 2.458 2.458 0 0 0-2.185-.554l-4.263.976c-.697-.86-1.34-1.76-1.93-2.697l2.257-3.89a2.471 2.471 0 0 0 .145-2.182 22.784 22.784 0 0 1-1.142-3.658 2.465 2.465 0 0 0-1.436-1.718l-4.102-1.747v-3.442l4.103-1.748a2.465 2.465 0 0 0 1.435-1.717 22.8 22.8 0 0 1 1.142-3.66 2.47 2.47 0 0 0-.144-2.182l-2.257-3.89a27.8 27.8 0 0 1 1.93-2.697l4.263.977a2.461 2.461 0 0 0 2.185-.554 22.14 22.14 0 0 1 3.023-2.234 2.477 2.477 0 0 0 1.159-1.874l.414-4.528a26.528 26.528 0 0 1 2.946-1.004l2.922 3.695c.468.591 1.18.937 1.934.937h4.158c.754 0 1.467-.346 1.934-.937l2.922-3.695c1.002.277 1.986.612 2.949 1.004l.414 4.529c.071.77.5 1.463 1.156 1.871a22.35 22.35 0 0 1 3.024 2.236 2.46 2.46 0 0 0 2.184.554l4.264-.976a27.57 27.57 0 0 1 1.93 2.697l-2.257 3.89a2.472 2.472 0 0 0-.145 2.184 22.57 22.57 0 0 1 1.142 3.656 2.47 2.47 0 0 0 1.407 1.706l3.938 1.738v3.486z" fill="#000"/><path d="M74 59.2c-9.536 0-17.267 7.73-17.267 17.267.012 9.531 7.736 17.255 17.267 17.267 9.536 0 17.267-7.731 17.267-17.267S83.537 59.2 74 59.2zm0 29.6c-6.811 0-12.333-5.522-12.333-12.333.008-6.808 5.525-12.326 12.333-12.334 6.811 0 12.333 5.523 12.333 12.334S80.811 88.8 74 88.8z" fill="#000"/><path d="M19.82 68.02a9.778 9.778 0 0 0 2.38-6.353c0-5.45-4.418-9.867-9.867-9.867-5.449 0-9.866 4.418-9.866 9.867a9.777 9.777 0 0 0 2.38 6.352A9.835 9.835 0 0 0 0 76.467v17.266A2.466 2.466 0 0 0 2.465 96.2H22.2a2.466 2.466 0 0 0 2.467-2.465V76.467a9.836 9.836 0 0 0-4.847-8.448zm-7.487-11.287a4.933 4.933 0 1 1 0 9.867 4.933 4.933 0 0 1 0-9.867zm7.4 34.534h-14.8v-14.8a4.94 4.94 0 0 1 4.934-4.934H14.8a4.94 4.94 0 0 1 4.933 4.934v14.8z" fill="#CD071B"/><path d="M88.577 128.267a14.814 14.814 0 0 0-12.11-12.111v-2.689h-4.934v2.689a14.814 14.814 0 0 0-12.11 12.111h-2.69v4.933h2.69a14.814 14.814 0 0 0 12.11 12.111V148h4.934v-2.689a14.814 14.814 0 0 0 12.11-12.111h2.69v-4.933h-2.69zm-5.06 4.933a9.853 9.853 0 0 1-7.05 7.05v-2.117h-4.934v2.117a9.853 9.853 0 0 1-7.05-7.05H66.6v-4.933h-2.116a9.851 9.851 0 0 1 7.05-7.05v2.116h4.933v-2.116a9.851 9.851 0 0 1 7.05 7.05H81.4v4.933h2.116z" fill="#CD071B"/><path d="M73.502.009C65.715.27 59.462 6.523 59.2 14.31a14.225 14.225 0 0 0 7.4 12.383V37a2.466 2.466 0 0 0 2.466 2.467h9.867A2.466 2.466 0 0 0 81.4 37V26.694a14.225 14.225 0 0 0 7.4-12.383C88.525 6.137 81.677-.266 73.503.009zm2.965 34.524h-4.933V29.6h4.933v4.933zm1.51-11.651a2.446 2.446 0 0 0-1.437 1.785h-5.08a2.446 2.446 0 0 0-1.437-1.785 9.38 9.38 0 0 1-5.89-8.571c.278-5.45 4.92-9.642 10.37-9.365a9.879 9.879 0 0 1 9.364 9.365 9.38 9.38 0 0 1-5.89 8.57z" fill="#CD071B"/><path d="M54.267 12.334h-4.934v4.933h4.934v-4.933z" fill="#CD071B"/><path d="M98.667 12.334h-4.934v4.933h4.934v-4.933z" fill="#CD071B"/><path d="M93.722.723L90.233 4.21l3.489 3.488L97.21 4.21 93.722.723z" fill="#CD071B"/><path d="M54.266.731L50.778 4.22l3.488 3.488 3.489-3.488L54.266.73z" fill="#CD071B"/><path d="M54.266 21.177l-3.488 3.489 3.488 3.488 3.489-3.488-3.489-3.489z" fill="#CD071B"/><path d="M93.732 21.179l-3.488 3.488 3.488 3.488 3.488-3.488-3.488-3.488z" fill="#CD071B"/><path d="M138.133 71.533h-7.4a4.933 4.933 0 0 1 0-9.867h14.8v-4.933h-7.4V51.8H133.2v4.933h-2.467c-5.449 0-9.866 4.418-9.866 9.867 0 5.449 4.417 9.867 9.866 9.867h7.4a4.934 4.934 0 1 1 0 9.866h-14.8v4.933h9.867V96.2h4.933v-4.934c5.45 0 9.867-4.417 9.867-9.866a9.866 9.866 0 0 0-9.867-9.867z" fill="#CD071B"/><path d="M19.724 100.146l-4.519 1.975a63.985 63.985 0 0 0 33.62 33.347l1.937-4.536a59.082 59.082 0 0 1-31.038-30.786z" fill="#000"/><path d="M128.277 100.146a59.127 59.127 0 0 1-30.598 30.596l1.975 4.521a64.038 64.038 0 0 0 33.141-33.142l-4.518-1.975z" fill="#000"/><path d="M104.486 20.03l-2.346 4.339a59.243 59.243 0 0 1 23.956 23.957l4.341-2.349a64.155 64.155 0 0 0-25.951-25.946z" fill="#000"/><path d="M43.511 20.03a64.171 64.171 0 0 0-25.948 25.948l4.34 2.348A59.22 59.22 0 0 1 45.859 24.37l-2.347-4.338z" fill="#000"/></g><defs><clipPath id="clip0"><path fill="#fff" d="M0 0h148v148H0z"/></clipPath></defs></svg>