<svg width="112" height="112" viewBox="0 0 112 112" fill="none" xmlns="http://www.w3.org/2000/svg"><g clip-path="url(#clip0)"><path d="M104.533 22.4c-4.118 0-7.466 3.349-7.466 7.467 0 4.117 3.349 7.466 7.466 7.466 4.118 0 7.467-3.348 7.467-7.466s-3.349-7.467-7.467-7.467zm0 11.2a3.737 3.737 0 0 1-3.733-3.733 3.737 3.737 0 0 1 3.733-3.734 3.737 3.737 0 0 1 3.734 3.734 3.738 3.738 0 0 1-3.734 3.733z" fill="#000"/><path d="M7.467 84C3.349 84 0 87.349 0 91.467c0 4.117 3.349 7.466 7.467 7.466 4.118 0 7.466-3.349 7.466-7.466 0-4.118-3.348-7.467-7.466-7.467zm0 11.2a3.737 3.737 0 0 1-3.734-3.733 3.737 3.737 0 0 1 3.734-3.734 3.737 3.737 0 0 1 3.733 3.734A3.737 3.737 0 0 1 7.467 95.2z" fill="#000"/><path d="M100.914 24.76L84.81 16.984a1.867 1.867 0 0 0-1.622 3.362l16.104 7.774a1.864 1.864 0 0 0 2.492-.87 1.867 1.867 0 0 0-.87-2.492z" fill="#000"/><path d="M84 97.067c-4.118 0-7.467 3.348-7.467 7.466S79.882 112 84 112c4.118 0 7.467-3.349 7.467-7.467 0-4.117-3.349-7.466-7.467-7.466zm0 11.2a3.738 3.738 0 0 1-3.733-3.734A3.737 3.737 0 0 1 84 100.8a3.737 3.737 0 0 1 3.733 3.733A3.737 3.737 0 0 1 84 108.267z" fill="#000"/><path d="M80.38 99.426l-16.103-7.774a1.867 1.867 0 0 0-1.622 3.362l16.104 7.774a1.864 1.864 0 0 0 2.492-.87 1.867 1.867 0 0 0-.87-2.492z" fill="#000"/><path d="M56 50.4c-4.118 0-7.467 3.349-7.467 7.467 0 4.118 3.35 7.466 7.467 7.466 4.118 0 7.467-3.349 7.467-7.466 0-4.118-3.349-7.467-7.467-7.467zm0 11.2a3.737 3.737 0 0 1-3.733-3.733A3.737 3.737 0 0 1 56 54.133a3.737 3.737 0 0 1 3.733 3.734A3.737 3.737 0 0 1 56 61.6z" fill="#000"/><path d="M52.718 52.968l-12.37-9.64a1.868 1.868 0 0 0-2.296 2.946l12.37 9.64a1.866 1.866 0 0 0 2.296-2.946z" fill="#000"/><path d="M89.6 48.533c-11.321 0-20.533 9.212-20.533 20.534 0 11.321 9.212 20.533 20.533 20.533 11.321 0 20.533-9.212 20.533-20.533 0-11.322-9.212-20.534-20.533-20.534zm0 37.334c-9.264 0-16.8-7.536-16.8-16.8 0-9.265 7.536-16.8 16.8-16.8 9.264 0 16.8 7.535 16.8 16.8 0 9.264-7.536 16.8-16.8 16.8z" fill="#000"/><path d="M89.6 56c-4.118 0-7.467 3.349-7.467 7.467 0 4.118 3.35 7.466 7.467 7.466 4.118 0 7.467-3.349 7.467-7.466 0-4.118-3.349-7.467-7.467-7.467zm0 11.2a3.737 3.737 0 0 1-3.733-3.733 3.737 3.737 0 0 1 3.733-3.734 3.737 3.737 0 0 1 3.733 3.734A3.737 3.737 0 0 1 89.6 67.2z" fill="#CD071B"/><path d="M95.015 74.666h-10.83c-3.19 0-5.785 2.526-5.785 5.629v4.92c0 .666.355 1.282.931 1.617A20.531 20.531 0 0 0 89.6 89.6c3.59 0 7.14-.958 10.269-2.768.576-.333.931-.95.931-1.615v-4.92c0-3.105-2.595-5.63-5.785-5.63zm2.052 9.437c-4.646 2.314-10.288 2.314-14.934 0v-3.806c0-1.046.92-1.897 2.052-1.897h10.83c1.131 0 2.051.851 2.051 1.896v3.806z" fill="#CD071B"/><path d="M44.8 70.933c-11.321 0-20.533 9.212-20.533 20.534C24.267 102.788 33.479 112 44.8 112c11.321 0 20.533-9.212 20.533-20.534 0-11.32-9.212-20.533-20.533-20.533zm0 37.334c-9.264 0-16.8-7.536-16.8-16.8 0-9.265 7.536-16.8 16.8-16.8 9.264 0 16.8 7.535 16.8 16.8 0 9.264-7.536 16.8-16.8 16.8z" fill="#000"/><path d="M44.8 78.4c-4.118 0-7.467 3.349-7.467 7.467 0 4.118 3.35 7.466 7.467 7.466 4.118 0 7.467-3.349 7.467-7.466 0-4.118-3.349-7.467-7.467-7.467zm0 11.2a3.737 3.737 0 0 1-3.733-3.733 3.737 3.737 0 0 1 3.733-3.734 3.737 3.737 0 0 1 3.733 3.734A3.737 3.737 0 0 1 44.8 89.6z" fill="#CD071B"/><path d="M50.215 97.067h-10.83c-3.19 0-5.785 2.525-5.785 5.628v4.92c0 .667.355 1.283.931 1.617A20.537 20.537 0 0 0 44.8 112c3.59 0 7.14-.958 10.269-2.768.576-.333.931-.95.931-1.615v-4.92c0-3.105-2.595-5.63-5.785-5.63zm2.052 9.436c-4.647 2.314-10.288 2.314-14.934 0v-3.806c0-1.046.92-1.897 2.052-1.897h10.83c1.131 0 2.051.851 2.051 1.897v3.806z" fill="#CD071B"/><path d="M20.533 24.267C9.212 24.267 0 33.479 0 44.8c0 11.321 9.212 20.533 20.533 20.533 11.322 0 20.534-9.212 20.534-20.533 0-11.321-9.212-20.533-20.534-20.533zm0 37.333c-9.264 0-16.8-7.536-16.8-16.8 0-9.264 7.536-16.8 16.8-16.8 9.265 0 16.8 7.536 16.8 16.8 0 9.264-7.535 16.8-16.8 16.8z" fill="#000"/><path d="M20.533 31.733c-4.118 0-7.466 3.35-7.466 7.467 0 4.118 3.349 7.467 7.466 7.467 4.118 0 7.467-3.35 7.467-7.467 0-4.118-3.349-7.467-7.467-7.467zm0 11.2A3.737 3.737 0 0 1 16.8 39.2a3.737 3.737 0 0 1 3.733-3.733 3.737 3.737 0 0 1 3.734 3.733 3.737 3.737 0 0 1-3.734 3.733z" fill="#CD071B"/><path d="M25.949 50.4h-10.83c-3.19 0-5.786 2.526-5.786 5.628v4.92c0 .667.355 1.283.932 1.617a20.531 20.531 0 0 0 10.268 2.769c3.59 0 7.14-.958 10.269-2.769.577-.332.931-.95.931-1.614v-4.92c0-3.105-2.594-5.63-5.784-5.63zM28 59.836c-4.646 2.315-10.287 2.315-14.933 0V56.03c0-1.045.92-1.896 2.051-1.896h10.83c1.131 0 2.052.85 2.052 1.896v3.806z" fill="#CD071B"/><path d="M65.333 0C54.012 0 44.8 9.212 44.8 20.533c0 11.322 9.212 20.534 20.533 20.534 11.322 0 20.534-9.212 20.534-20.534C85.867 9.212 76.655 0 65.333 0zm0 37.333c-9.264 0-16.8-7.535-16.8-16.8 0-9.264 7.536-16.8 16.8-16.8 9.265 0 16.8 7.536 16.8 16.8 0 9.265-7.535 16.8-16.8 16.8z" fill="#000"/><path d="M65.333 7.467c-4.118 0-7.466 3.348-7.466 7.466s3.349 7.467 7.466 7.467c4.118 0 7.467-3.349 7.467-7.467 0-4.117-3.349-7.466-7.467-7.466zm0 11.2a3.737 3.737 0 0 1-3.733-3.734 3.737 3.737 0 0 1 3.733-3.733 3.737 3.737 0 0 1 3.734 3.733 3.737 3.737 0 0 1-3.734 3.734z" fill="#CD071B"/><path d="M70.749 26.133h-10.83c-3.19 0-5.786 2.526-5.786 5.628v4.92c0 .667.355 1.283.932 1.617a20.531 20.531 0 0 0 10.268 2.769c3.59 0 7.14-.958 10.269-2.769.577-.332.931-.95.931-1.614v-4.92c0-3.105-2.594-5.63-5.784-5.63zM72.8 35.57c-4.646 2.315-10.287 2.315-14.933 0v-3.806c0-1.045.92-1.896 2.051-1.896h10.83c1.131 0 2.052.85 2.052 1.896v3.806z" fill="#CD071B"/><path d="M48.087 19.318a1.87 1.87 0 0 0-2.632-.204L32.52 30.184a1.866 1.866 0 1 0 2.427 2.835l12.936-11.07c.784-.67.875-1.847.205-2.631z" fill="#000"/><path d="M89.227 49.282l-11.2-14.933a1.867 1.867 0 0 0-2.987 2.238l11.2 14.933a1.865 1.865 0 0 0 2.987-2.238z" fill="#000"/><path d="M73.907 75.24a1.867 1.867 0 0 0-2.614-.374l-10.427 7.82a1.865 1.865 0 1 0 2.24 2.984l10.428-7.819a1.864 1.864 0 0 0 .373-2.611z" fill="#000"/><path d="M26.133 89.6H13.067a1.866 1.866 0 1 0 0 3.733h13.066a1.866 1.866 0 1 0 0-3.733z" fill="#000"/><path d="M20.533 0c-4.118 0-7.466 3.349-7.466 7.467 0 4.118 3.348 7.466 7.466 7.466S28 11.584 28 7.467C28 3.349 24.65 0 20.533 0zm0 11.2A3.737 3.737 0 0 1 16.8 7.467a3.737 3.737 0 0 1 3.733-3.734 3.737 3.737 0 0 1 3.734 3.734 3.737 3.737 0 0 1-3.734 3.733z" fill="#000"/><path d="M20.533 11.2c-1.03 0-1.866.834-1.866 1.867v13.066a1.866 1.866 0 1 0 3.733 0V13.067a1.866 1.866 0 0 0-1.867-1.867z" fill="#000"/></g><defs><clipPath id="clip0"><path fill="#fff" d="M0 0h112v112H0z"/></clipPath></defs></svg>