<svg width="98" height="98" viewBox="0 0 98 98" fill="none" xmlns="http://www.w3.org/2000/svg"><g clip-path="url(#clip0)"><path d="M91.418 24.51C84.876 13.18 74.314 5.077 61.678 1.69 49.04-1.696 35.841.042 24.51 6.583 13.18 13.125 5.076 23.687 1.69 36.323-1.695 48.96.043 62.16 6.584 73.49c6.541 11.33 17.103 19.434 29.74 22.82A49.245 49.245 0 0 0 49.081 98c8.486 0 16.863-2.226 24.41-6.583 11.33-6.541 19.434-17.103 22.82-29.74 3.386-12.637 1.648-25.836-4.893-37.166zm-.034 35.847C88.35 71.677 81.09 81.14 70.94 87c-10.15 5.86-21.975 7.417-33.296 4.384C26.323 88.35 16.861 81.09 11.001 70.94 5.14 60.79 3.584 48.965 6.618 37.644 9.65 26.323 16.912 16.86 27.062 11c6.761-3.904 14.264-5.898 21.868-5.898 3.81 0 7.648.501 11.427 1.514C71.677 9.65 81.14 16.91 87 27.06c5.86 10.15 7.417 21.975 4.384 33.296z" fill="#000"/><path d="M72.5 44.378L41.01 26.196a5.284 5.284 0 0 0-5.338 0 5.283 5.283 0 0 0-2.67 4.622v36.364c0 1.93.998 3.657 2.67 4.622a5.323 5.323 0 0 0 2.668.724c.917 0 1.834-.242 2.67-.724L72.5 53.623A5.284 5.284 0 0 0 75.17 49c0-1.93-.998-3.657-2.67-4.622zm-2.55 4.828l-31.49 18.18a.211.211 0 0 1-.237 0c-.118-.068-.118-.16-.118-.205V30.819c0-.045 0-.137.118-.205a.24.24 0 0 1 .121-.036.22.22 0 0 1 .116.036l31.49 18.181c.039.023.119.069.119.205 0 .137-.08.183-.119.206z" fill="#CD071B"/><path d="M79.109 25.733c-6.066-7.836-15.184-13.1-25.017-14.444a2.551 2.551 0 0 0-.69 5.054c8.52 1.165 16.42 5.725 21.673 12.513a2.546 2.546 0 0 0 3.578.455 2.55 2.55 0 0 0 .456-3.578z" fill="#CD071B"/></g><defs><clipPath id="clip0"><path fill="#fff" d="M0 0h98v98H0z"/></clipPath></defs></svg>