<svg width="112" height="112" viewBox="0 0 112 112" fill="none" xmlns="http://www.w3.org/2000/svg"><g clip-path="url(#clip0)"><path d="M86.414 40.52c.729.728 1.91.728 2.64 0l2.413-2.414 2.413 2.414a1.867 1.867 0 0 0 2.64-2.64l-2.414-2.413 2.414-2.414a1.867 1.867 0 0 0-2.64-2.64l-2.413 2.414-2.414-2.413a1.867 1.867 0 0 0-2.64 2.64l2.414 2.413-2.413 2.413a1.868 1.868 0 0 0 0 2.64z" fill="#000"/><path d="M54.133 44.8H16.8c-1.03 0-1.867.836-1.867 1.867V95.2c0 1.03.836 1.867 1.867 1.867h37.333A1.867 1.867 0 0 0 56 95.2V46.667a1.867 1.867 0 0 0-1.867-1.867zm-1.866 48.533h-33.6v-44.8h33.6v44.8z" fill="#000"/><path d="M91.467 52.267H61.6c-1.03 0-1.867.835-1.867 1.866V61.6c0 1.03.836 1.867 1.867 1.867h29.867c1.03 0 1.866-.836 1.866-1.867v-7.467c0-1.03-.835-1.866-1.866-1.866zM89.6 59.733H63.467V56H89.6v3.733z" fill="#CD071B"/><path d="M91.467 67.2H61.6c-1.03 0-1.867.836-1.867 1.867v7.466c0 1.031.836 1.867 1.867 1.867h29.867c1.03 0 1.866-.836 1.866-1.867v-7.466a1.866 1.866 0 0 0-1.866-1.867zM89.6 74.667H63.467v-3.734H89.6v3.734z" fill="#CD071B"/><path d="M91.467 22.4a12.972 12.972 0 0 0-12.918 14.933H16.8a9.344 9.344 0 0 0-9.333 9.334V95.2a9.344 9.344 0 0 0 9.333 9.333h78.4a9.344 9.344 0 0 0 9.333-9.333V46.667a9.203 9.203 0 0 0-1.534-5.072A13.054 13.054 0 0 0 91.467 22.4zm0 3.733a9.334 9.334 0 1 1-9.334 9.334 9.344 9.344 0 0 1 9.334-9.334zM100.8 95.2a5.6 5.6 0 0 1-5.6 5.6H16.8a5.6 5.6 0 0 1-5.6-5.6V46.667a5.6 5.6 0 0 1 5.6-5.6h62.879a13.024 13.024 0 0 0 20.828 3.811c.194.576.293 1.18.293 1.789V95.2z" fill="#000"/><path d="M85.867 82.133H67.2a1.867 1.867 0 0 0 0 3.734h18.667a1.867 1.867 0 0 0 0-3.734z" fill="#CD071B"/><path d="M82.133 89.6h-11.2a1.867 1.867 0 0 0 0 3.733h11.2a1.867 1.867 0 0 0 0-3.733z" fill="#CD071B"/><path d="M106.4 14.933H62.754l-6.94-13.9A1.866 1.866 0 0 0 54.133 0H5.6A5.6 5.6 0 0 0 0 5.6v100.8a5.6 5.6 0 0 0 5.6 5.6h100.8a5.6 5.6 0 0 0 5.6-5.6V20.533a5.6 5.6 0 0 0-5.6-5.6zM3.733 5.6c0-1.03.836-1.867 1.867-1.867h47.38l5.6 11.2H3.732V5.6zm104.534 100.8a1.867 1.867 0 0 1-1.867 1.867H5.6a1.867 1.867 0 0 1-1.867-1.867V18.667H106.4c1.031 0 1.867.835 1.867 1.866V106.4z" fill="#000"/><path d="M26.68 79.72c.73.728 1.91.728 2.64 0l14.933-14.934a1.867 1.867 0 0 0-2.64-2.64L26.68 77.08a1.868 1.868 0 0 0 0 2.64z" fill="#CD071B"/><path d="M28 69.067a5.6 5.6 0 1 0 0-11.2 5.6 5.6 0 0 0 0 11.2zm0-7.467a1.867 1.867 0 1 1 0 3.734 1.867 1.867 0 0 1 0-3.734z" fill="#CD071B"/><path d="M37.333 78.4a5.6 5.6 0 1 0 11.201 0 5.6 5.6 0 0 0-11.2 0zm7.467 0a1.867 1.867 0 1 1-3.733 0 1.867 1.867 0 0 1 3.733 0z" fill="#CD071B"/><path d="M7.467 7.467H11.2V11.2H7.467V7.467z" fill="#000"/><path d="M14.933 7.467h3.734V11.2h-3.734V7.467z" fill="#000"/><path d="M22.4 7.467h3.733V11.2H22.4V7.467z" fill="#000"/></g><defs><clipPath id="clip0"><path fill="#fff" d="M0 0h112v112H0z"/></clipPath></defs></svg>