<svg width="59" height="59" viewBox="0 0 59 59" fill="none" xmlns="http://www.w3.org/2000/svg"><g clip-path="url(#clip0)"><path d="M35.672 37.43a1.157 1.157 0 0 0-.497-.035l-.058-.002a8.018 8.018 0 0 0 2.427-5.75V20.166c0-.636-.516-1.152-1.152-1.152h-8.536a6.406 6.406 0 0 0-6.399 6.398v6.23c0 2.252.931 4.29 2.427 5.751l-.058.002a1.159 1.159 0 0 0-.497.035c-5.957.534-10.643 5.554-10.643 11.648v5.658c0 .637.517 1.153 1.153 1.153h31.323c.637 0 1.153-.516 1.153-1.153v-5.658c0-6.094-4.685-11.114-10.643-11.648zm-11.91-10.404v-1.614a4.098 4.098 0 0 1 4.093-4.094h7.384v3.084a2.829 2.829 0 0 1-2.826 2.826h-8.651v-.202zm0 4.617v-2.11h8.651a5.1 5.1 0 0 0 2.826-.852v2.962a5.745 5.745 0 0 1-5.739 5.739 5.745 5.745 0 0 1-5.738-5.739zm8.799 8.043l-3.06 3.06-3.061-3.06h6.12zM44.01 53.584H14.99v-3.317h9.404a1.152 1.152 0 0 0 0-2.304H15.06a9.407 9.407 0 0 1 8.191-8.206l5.435 5.434a1.15 1.15 0 0 0 1.63 0l5.433-5.434c4.647.56 8.26 4.526 8.26 9.321v4.506z" fill="url(#paint0_linear)"/><path d="M30.315 48.3a1.16 1.16 0 0 0-.815-.337c-.303 0-.6.123-.815.337a1.161 1.161 0 0 0-.337.815c0 .303.123.6.337.815.215.214.512.338.815.338.303 0 .6-.124.815-.338.214-.214.337-.512.337-.815 0-.303-.123-.6-.337-.815z" fill="url(#paint1_linear)"/><path d="M29.515 3.111a4.384 4.384 0 0 0-4.38 4.38 4.386 4.386 0 0 0 3.227 4.223v2.814a1.153 1.153 0 0 0 2.305 0v-2.814a4.386 4.386 0 0 0 3.227-4.224 4.384 4.384 0 0 0-4.38-4.379zm0 6.453A2.077 2.077 0 0 1 27.44 7.49c0-1.143.931-2.074 2.075-2.074 1.143 0 2.074.93 2.074 2.074 0 1.144-.93 2.074-2.074 2.074z" fill="url(#paint2_linear)"/><path d="M52.649 12.1a4.35 4.35 0 0 0-3.096-1.283 4.35 4.35 0 0 0-3.097 1.283 4.386 4.386 0 0 0-.705 5.268l-1.99 1.99a1.153 1.153 0 0 0 1.63 1.63l1.989-1.99a4.353 4.353 0 0 0 2.172.577 4.35 4.35 0 0 0 3.097-1.282 4.35 4.35 0 0 0 1.282-3.097A4.35 4.35 0 0 0 52.65 12.1zm-1.63 4.563a2.077 2.077 0 0 1-2.933 0 2.077 2.077 0 0 1 0-2.933 2.067 2.067 0 0 1 1.467-.607c.53 0 1.062.202 1.466.607.392.391.608.912.608 1.466a2.06 2.06 0 0 1-.608 1.467z" fill="url(#paint3_linear)"/><path d="M54.621 30.863a4.386 4.386 0 0 0-4.224 3.227h-2.814a1.153 1.153 0 0 0 0 2.304h2.814a4.386 4.386 0 0 0 4.224 3.227 4.384 4.384 0 0 0 4.38-4.379 4.384 4.384 0 0 0-4.38-4.379zm0 6.453a2.077 2.077 0 0 1-2.074-2.074c0-1.143.93-2.074 2.074-2.074 1.144 0 2.075.93 2.075 2.074a2.077 2.077 0 0 1-2.075 2.074z" fill="url(#paint4_linear)"/><path d="M44.028 34.428a1.16 1.16 0 0 0-.815-.338c-.303 0-.6.123-.815.337a1.16 1.16 0 0 0-.338.815 1.156 1.156 0 0 0 1.967.815 1.16 1.16 0 0 0 .338-.815c0-.303-.123-.599-.337-.814z" fill="url(#paint5_linear)"/><path d="M11.417 34.06H8.603a4.386 4.386 0 0 0-4.224-3.226A4.384 4.384 0 0 0 0 35.213a4.384 4.384 0 0 0 4.379 4.379 4.386 4.386 0 0 0 4.224-3.227h2.814a1.152 1.152 0 0 0 0-2.305zM4.38 37.287a2.077 2.077 0 0 1-2.074-2.074c0-1.144.93-2.074 2.074-2.074 1.144 0 2.074.93 2.074 2.074 0 1.144-.93 2.074-2.074 2.074z" fill="url(#paint6_linear)"/><path d="M15.17 19.247l-1.99-1.99a4.351 4.351 0 0 0 .577-2.172 4.35 4.35 0 0 0-1.283-3.096 4.35 4.35 0 0 0-3.096-1.283A4.35 4.35 0 0 0 6.28 11.99a4.384 4.384 0 0 0 0 6.192 4.35 4.35 0 0 0 3.097 1.283c.775 0 1.518-.201 2.173-.576l1.989 1.989a1.15 1.15 0 0 0 1.63 0c.45-.45.45-1.18 0-1.63zm-4.325-2.696a2.076 2.076 0 0 1-2.934 0 2.077 2.077 0 0 1 0-2.933 2.068 2.068 0 0 1 1.467-.606c.531 0 1.062.202 1.466.606.392.392.608.913.608 1.467a2.06 2.06 0 0 1-.607 1.466z" fill="url(#paint7_linear)"/></g><defs><linearGradient id="paint0_linear" x1="29.501" y1="19.014" x2="29.501" y2="55.889" gradientUnits="userSpaceOnUse"><stop stop-color="#00F0FF"/><stop offset="1" stop-color="#11B7C2"/></linearGradient><linearGradient id="paint1_linear" x1="29.5" y1="47.963" x2="29.5" y2="50.268" gradientUnits="userSpaceOnUse"><stop stop-color="#00F0FF"/><stop offset="1" stop-color="#11B7C2"/></linearGradient><linearGradient id="paint2_linear" x1="29.515" y1="3.111" x2="29.515" y2="15.681" gradientUnits="userSpaceOnUse"><stop stop-color="#00F0FF"/><stop offset="1" stop-color="#11B7C2"/></linearGradient><linearGradient id="paint3_linear" x1="48.677" y1="10.817" x2="48.677" y2="21.326" gradientUnits="userSpaceOnUse"><stop stop-color="#00F0FF"/><stop offset="1" stop-color="#11B7C2"/></linearGradient><linearGradient id="paint4_linear" x1="52.715" y1="30.863" x2="52.715" y2="39.621" gradientUnits="userSpaceOnUse"><stop stop-color="#00F0FF"/><stop offset="1" stop-color="#11B7C2"/></linearGradient><linearGradient id="paint5_linear" x1="43.213" y1="34.09" x2="43.213" y2="36.395" gradientUnits="userSpaceOnUse"><stop stop-color="#00F0FF"/><stop offset="1" stop-color="#11B7C2"/></linearGradient><linearGradient id="paint6_linear" x1="6.285" y1="30.834" x2="6.285" y2="39.592" gradientUnits="userSpaceOnUse"><stop stop-color="#00F0FF"/><stop offset="1" stop-color="#11B7C2"/></linearGradient><linearGradient id="paint7_linear" x1="10.254" y1="10.706" x2="10.254" y2="21.214" gradientUnits="userSpaceOnUse"><stop stop-color="#00F0FF"/><stop offset="1" stop-color="#11B7C2"/></linearGradient><clipPath id="clip0"><path fill="#fff" d="M0 0h59v59H0z"/></clipPath></defs></svg>