<svg width="112" height="112" viewBox="0 0 112 112" fill="none" xmlns="http://www.w3.org/2000/svg"><path d="M91 41.125c-.464 0-.91-.184-1.237-.513l-10.25-10.25A8.498 8.498 0 0 1 77 24.307c0-2.29.895-4.443 2.515-6.06a8.473 8.473 0 0 1 6.051-2.508c2.006 0 3.904.682 5.434 1.934a8.534 8.534 0 0 1 5.435-1.934c2.296 0 4.447.894 6.059 2.515a8.486 8.486 0 0 1 2.508 6.053 8.491 8.491 0 0 1-2.513 6.058l-.618.608-9.635 9.642a1.74 1.74 0 0 1-1.236.511zm-5.434-21.887a5.002 5.002 0 0 0-3.575 1.482 5.022 5.022 0 0 0-1.491 3.586c0 1.356.528 2.627 1.486 3.58L91 36.9l9.027-9.022a5.019 5.019 0 0 0 1.475-3.572 5.025 5.025 0 0 0-1.485-3.581c-1.912-1.921-5.258-1.918-7.182 0l-.603.6a1.746 1.746 0 0 1-2.468 0l-.601-.598a5.052 5.052 0 0 0-3.597-1.489z" fill="#CD071B"/><path d="M110.25 62.125c-.968 0-1.75-.782-1.75-1.75a1.75 1.75 0 0 0-1.75-1.75c-.968 0-1.75-.782-1.75-1.75s.782-1.75 1.75-1.75a5.257 5.257 0 0 1 5.25 5.25c0 .968-.782 1.75-1.75 1.75z" fill="#CD071B"/><path d="M106.75 74.375c-.968 0-1.75-.782-1.75-1.75s.782-1.75 1.75-1.75a1.75 1.75 0 0 0 1.75-1.75c0-.968.782-1.75 1.75-1.75s1.75.782 1.75 1.75a5.257 5.257 0 0 1-5.25 5.25z" fill="#CD071B"/><path d="M110.25 70.875c-.968 0-1.75-.782-1.75-1.75v-8.75c0-.968.782-1.75 1.75-1.75s1.75.782 1.75 1.75v8.75c0 .968-.782 1.75-1.75 1.75z" fill="#CD071B"/><path d="M106.75 58.625h-3.5c-.968 0-1.75-.782-1.75-1.75s.782-1.75 1.75-1.75h3.5c.968 0 1.75.782 1.75 1.75s-.782 1.75-1.75 1.75z" fill="#CD071B"/><path d="M106.75 74.375h-10.5c-.968 0-1.75-.782-1.75-1.75s.782-1.75 1.75-1.75h10.5c.968 0 1.75.782 1.75 1.75s-.782 1.75-1.75 1.75z" fill="#CD071B"/><path d="M103.25 58.625c-.968 0-1.75-.782-1.75-1.75V50.75c0-.968.782-1.75 1.75-1.75s1.75.782 1.75 1.75v6.125c0 .968-.782 1.75-1.75 1.75z" fill="#CD071B"/><path d="M96.252 58.625a1.752 1.752 0 0 1-1.685-2.23l1.75-6.124a1.763 1.763 0 0 1 2.162-1.204 1.752 1.752 0 0 1 1.204 2.163l-1.75 6.125a1.75 1.75 0 0 1-1.681 1.27z" fill="#CD071B"/><path d="M98 52.5a1.749 1.749 0 0 1-1.682-2.231c.305-1.064 1.116-3.894 4.307-3.894A4.38 4.38 0 0 1 105 50.75c0 .968-.782 1.75-1.75 1.75s-1.75-.782-1.75-1.75a.878.878 0 0 0-.875-.875c-.322 0-.553 0-.943 1.356A1.748 1.748 0 0 1 98 52.5z" fill="#CD071B"/><path d="M96.25 74.375c-.448 0-.896-.172-1.237-.513l-1.75-1.75a1.748 1.748 0 0 1 0-2.474 1.748 1.748 0 0 1 2.474 0l1.75 1.75a1.748 1.748 0 0 1-1.237 2.987z" fill="#CD071B"/><path d="M96.25 58.625H91c-.968 0-1.75-.782-1.75-1.75s.782-1.75 1.75-1.75h5.25c.968 0 1.75.782 1.75 1.75s-.782 1.75-1.75 1.75z" fill="#CD071B"/><path d="M94.5 72.625H91c-.968 0-1.75-.782-1.75-1.75s.782-1.75 1.75-1.75h3.5c.968 0 1.75.782 1.75 1.75s-.782 1.75-1.75 1.75z" fill="#CD071B"/><path d="M91 74.375h-7c-.968 0-1.75-.782-1.75-1.75v-17.5c0-.968.782-1.75 1.75-1.75h7c.968 0 1.75.782 1.75 1.75v17.5c0 .968-.782 1.75-1.75 1.75zm-5.25-3.5h3.5v-14h-3.5v14z" fill="#CD071B"/><path d="M92.75 107.625c-6.753 0-12.25-5.497-12.25-12.25s5.497-12.25 12.25-12.25S105 88.622 105 95.375s-5.497 12.25-12.25 12.25zm0-21c-4.825 0-8.75 3.925-8.75 8.75 0 4.824 3.925 8.75 8.75 8.75s8.75-3.926 8.75-8.75c0-4.825-3.925-8.75-8.75-8.75z" fill="#CD071B"/><path d="M92.75 100.625c-.968 0-1.75-.782-1.75-1.75v-7c0-.968.782-1.75 1.75-1.75s1.75.782 1.75 1.75v7c0 .968-.782 1.75-1.75 1.75z" fill="#CD071B"/><path d="M96.25 97.125h-7c-.968 0-1.75-.782-1.75-1.75s.782-1.75 1.75-1.75h7c.968 0 1.75.782 1.75 1.75s-.782 1.75-1.75 1.75z" fill="#CD071B"/><path d="M47.25 20.125a5.257 5.257 0 0 1-5.25-5.25 5.257 5.257 0 0 1 5.25-5.25 5.257 5.257 0 0 1 5.25 5.25 5.257 5.257 0 0 1-5.25 5.25zm0-7a1.751 1.751 0 0 0 0 3.5 1.751 1.751 0 0 0 0-3.5z" fill="#CD071B"/><path d="M63 11.375a5.257 5.257 0 0 1-5.25-5.25A5.257 5.257 0 0 1 63 .875a5.257 5.257 0 0 1 5.25 5.25 5.257 5.257 0 0 1-5.25 5.25zm0-7a1.751 1.751 0 0 0 0 3.5 1.751 1.751 0 0 0 0-3.5z" fill="#CD071B"/><path d="M63 28.875a5.257 5.257 0 0 1-5.25-5.25 5.257 5.257 0 0 1 5.25-5.25 5.257 5.257 0 0 1 5.25 5.25 5.257 5.257 0 0 1-5.25 5.25zm0-7a1.751 1.751 0 0 0 0 3.5 1.751 1.751 0 0 0 0-3.5z" fill="#CD071B"/><path d="M59.94 23.675c-.288 0-.58-.07-.848-.22l-9.635-5.353a1.75 1.75 0 1 1 1.697-3.059l9.635 5.353a1.749 1.749 0 0 1-.85 3.28z" fill="#CD071B"/><path d="M50.31 14.925a1.75 1.75 0 0 1-.85-3.279l9.636-5.353a1.746 1.746 0 0 1 2.378.68 1.748 1.748 0 0 1-.681 2.38l-9.635 5.352c-.268.15-.56.22-.847.22z" fill="#CD071B"/><path d="M75.25 48.128c-.968 0-1.75-.781-1.75-1.75a7.01 7.01 0 0 0-7.003-7.003 7.01 7.01 0 0 0-7.002 7.003c0 .969-.783 1.75-1.75 1.75-.968 0-1.75-.781-1.75-1.75 0-5.792 4.71-10.503 10.502-10.503 5.792 0 10.503 4.71 10.503 10.503 0 .969-.782 1.75-1.75 1.75z" fill="#000"/><path d="M66.5 91.875c-5.79 0-10.5-4.71-10.5-10.5 0-.968.782-1.75 1.75-1.75s1.75.782 1.75 1.75c0 3.86 3.14 7 7 7s7-3.14 7-7c0-.968.782-1.75 1.75-1.75s1.75.782 1.75 1.75c0 5.79-4.71 10.5-10.5 10.5z" fill="#000"/><path d="M57.75 83.125c-.968 0-1.75-.782-1.75-1.75v-35c0-.968.782-1.75 1.75-1.75s1.75.782 1.75 1.75v35c0 .968-.782 1.75-1.75 1.75z" fill="#000"/><path d="M48.998 48.128c-.968 0-1.75-.781-1.75-1.75 0-5.792 4.711-10.503 10.502-10.503.968 0 1.75.782 1.75 1.75s-.782 1.75-1.75 1.75c-3.86 0-7.002 3.141-7.002 7.003 0 .969-.782 1.75-1.75 1.75z" fill="#000"/><path d="M57.753 91.875c-5.79 0-10.5-4.71-10.5-10.5 0-.968.783-1.75 1.75-1.75.969 0 1.75.782 1.75 1.75 0 3.86 3.14 7 7 7 .969 0 1.75.782 1.75 1.75s-.781 1.75-1.75 1.75z" fill="#000"/><path d="M49.003 83.125c-.967 0-1.75-.782-1.75-1.75v-35c0-.968.783-1.75 1.75-1.75.969 0 1.75.782 1.75 1.75v35c0 .968-.781 1.75-1.75 1.75z" fill="#000"/><path d="M75.25 83.125c-.968 0-1.75-.782-1.75-1.75v-35c0-.968.782-1.75 1.75-1.75s1.75.782 1.75 1.75v35c0 .968-.782 1.75-1.75 1.75z" fill="#000"/><path d="M64.75 91.875h-7c-.968 0-1.75-.782-1.75-1.75s.782-1.75 1.75-1.75h7c.968 0 1.75.782 1.75 1.75s-.782 1.75-1.75 1.75z" fill="#000"/><path d="M64.75 39.375h-7c-.968 0-1.75-.782-1.75-1.75s.782-1.75 1.75-1.75h7c.968 0 1.75.782 1.75 1.75s-.782 1.75-1.75 1.75z" fill="#000"/><path d="M48.998 48.125H19.25c-.968 0-1.75-.782-1.75-1.75s.782-1.75 1.75-1.75h29.748c.968 0 1.75.782 1.75 1.75s-.782 1.75-1.75 1.75z" fill="#000"/><path d="M49.003 83.127H19.25c-.968 0-1.75-.782-1.75-1.75s.782-1.75 1.75-1.75h29.753c.969 0 1.75.782 1.75 1.75s-.781 1.75-1.75 1.75z" fill="#000"/><path d="M19.25 83.127C8.636 83.127 0 74.49 0 63.875c0-10.614 8.636-19.25 19.25-19.25.968 0 1.75.782 1.75 1.75s-.782 1.75-1.75 1.75c-8.685 0-15.75 7.065-15.75 15.75 0 8.685 7.065 15.752 15.75 15.752.968 0 1.75.782 1.75 1.75s-.782 1.75-1.75 1.75z" fill="#000"/><path d="M22.748 111.125a1.75 1.75 0 0 1-1.734-1.533l-3.5-27.998a1.75 1.75 0 0 1 1.519-1.954 1.755 1.755 0 0 1 1.953 1.52l3.5 27.998a1.75 1.75 0 0 1-1.738 1.967z" fill="#000"/><path d="M36.748 111.125a1.75 1.75 0 0 1-1.734-1.533l-3.5-27.998a1.75 1.75 0 0 1 1.519-1.954 1.755 1.755 0 0 1 1.953 1.52l3.5 27.998a1.75 1.75 0 0 1-1.738 1.967z" fill="#000"/><path d="M38.5 111.125H22.75c-.968 0-1.75-.782-1.75-1.75s.782-1.75 1.75-1.75H38.5c.968 0 1.75.782 1.75 1.75s-.782 1.75-1.75 1.75z" fill="#000"/><path d="M42 88.375a1.75 1.75 0 0 1-1.66-1.197l-1.75-5.248a1.75 1.75 0 1 1 3.321-1.108l1.75 5.248A1.75 1.75 0 0 1 42 88.375z" fill="#000"/><path d="M42 88.375h-8.094c-.968 0-1.75-.782-1.75-1.75s.782-1.75 1.75-1.75H42c.968 0 1.75.782 1.75 1.75s-.782 1.75-1.75 1.75z" fill="#000"/><path d="M64.75 69.125c-.968 0-1.75-.782-1.75-1.75s.782-1.75 1.75-1.75a1.751 1.751 0 0 0 0-3.5c-.968 0-1.75-.782-1.75-1.75s.782-1.75 1.75-1.75a5.257 5.257 0 0 1 5.25 5.25 5.257 5.257 0 0 1-5.25 5.25z" fill="#000"/><path d="M64.75 69.125h-7c-.968 0-1.75-.782-1.75-1.75s.782-1.75 1.75-1.75h7c.968 0 1.75.782 1.75 1.75s-.782 1.75-1.75 1.75z" fill="#000"/><path d="M64.75 62.125h-7c-.968 0-1.75-.782-1.75-1.75s.782-1.75 1.75-1.75h7c.968 0 1.75.782 1.75 1.75s-.782 1.75-1.75 1.75z" fill="#000"/><path d="M10.5 65.625H1.75c-.968 0-1.75-.782-1.75-1.75s.782-1.75 1.75-1.75h8.75c.968 0 1.75.782 1.75 1.75s-.782 1.75-1.75 1.75z" fill="#000"/><path d="M10.5 56.875H4.093c-.967 0-1.75-.782-1.75-1.75s.783-1.75 1.75-1.75H10.5c.968 0 1.75.782 1.75 1.75s-.782 1.75-1.75 1.75z" fill="#000"/><path d="M10.5 74.375H4.093c-.967 0-1.75-.782-1.75-1.75s.783-1.75 1.75-1.75H10.5c.968 0 1.75.782 1.75 1.75s-.782 1.75-1.75 1.75z" fill="#000"/></svg>