<svg width="98" height="98" viewBox="0 0 98 98" fill="none" xmlns="http://www.w3.org/2000/svg"><g clip-path="url(#clip0)"><path d="M49 31.583c-9.604 0-17.417 7.813-17.417 17.417 0 3.382.97 6.54 2.644 9.215a1.9 1.9 0 0 0 .181.284c3.112 4.764 8.49 7.918 14.592 7.918 9.604 0 17.417-7.813 17.417-17.417 0-9.604-7.813-17.417-17.417-17.417zM36.422 54.138A13.512 13.512 0 0 1 35.411 49c0-7.493 6.096-13.589 13.59-13.589 4.584 0 8.643 2.285 11.105 5.773L49.594 51.697l-4.012-4.012a1.914 1.914 0 0 0-2.707 0l-6.453 6.453zM49 62.589c-4.261 0-8.07-1.973-10.563-5.052l5.792-5.792 4.012 4.012a1.914 1.914 0 0 0 2.707 0l10.97-10.97c.434 1.327.672 2.743.672 4.213 0 7.493-6.097 13.59-13.59 13.59z" fill="#CD071B"/><path d="M78.447 47.679a56.846 56.846 0 0 0-7.617-26.637A56.836 56.836 0 0 0 49.953.253a1.914 1.914 0 0 0-1.904 0A56.838 56.838 0 0 0 27.17 21.041a56.845 56.845 0 0 0-7.616 26.638A18.392 18.392 0 0 0 8.422 64.57v13.522c0 1.057.857 1.914 1.914 1.914H38.46c.413 5.758 2.934 11.272 7.06 15.338l2.136 2.104c.372.367.857.55 1.343.55s.97-.183 1.343-.55l2.136-2.104c4.127-4.066 6.647-9.58 7.06-15.337h5.922v9.878a1.914 1.914 0 0 0 3.828 0v-9.879h18.375a1.914 1.914 0 0 0 1.914-1.914V64.571a18.392 18.392 0 0 0-11.131-16.892zM49 4.133a52.83 52.83 0 0 1 15.231 13.859H33.769A52.83 52.83 0 0 1 49 4.133zM12.25 76.18V64.571a14.565 14.565 0 0 1 7.273-12.603v22.297c0 .671.117 1.315.33 1.914H12.25zm37.542 16.439l-.792.78-.792-.78c-3.401-3.351-5.503-7.873-5.907-12.61H55.7c-.405 4.737-2.506 9.259-5.907 12.61zm24.856-18.353a1.916 1.916 0 0 1-1.914 1.914H25.266a1.916 1.916 0 0 1-1.914-1.914v-24.77c0-6.93 1.369-13.684 3.91-19.923h8.666a1.914 1.914 0 0 0 0-3.828h-6.927a53.242 53.242 0 0 1 2.185-3.924h35.628a52.943 52.943 0 0 1 7.834 27.675v24.77zM85.75 76.18h-7.603c.213-.599.33-1.243.33-1.914V51.968A14.564 14.564 0 0 1 85.75 64.57v11.608z" fill="#000"/><path d="M44.228 26.305a1.928 1.928 0 0 0-1.353-.56c-.503 0-.997.204-1.353.56-.356.356-.561.85-.561 1.353 0 .504.205.997.56 1.353.357.357.85.561 1.354.561.503 0 .997-.204 1.353-.56.356-.357.561-.85.561-1.354 0-.503-.205-.997-.56-1.353z" fill="#CD071B"/><path d="M30.625 85.128a1.914 1.914 0 0 0-1.914 1.914v5.897a1.914 1.914 0 0 0 3.828 0v-5.897a1.914 1.914 0 0 0-1.914-1.914z" fill="#000"/><path d="M68.728 94.733a1.928 1.928 0 0 0-1.353-.561c-.503 0-.997.205-1.353.56-.356.357-.561.85-.561 1.354 0 .503.204.997.56 1.353.357.356.85.561 1.354.561.503 0 .997-.205 1.353-.56.356-.357.561-.85.561-1.354a1.93 1.93 0 0 0-.56-1.353z" fill="#000"/></g><defs><clipPath id="clip0"><path fill="#fff" d="M0 0h98v98H0z"/></clipPath></defs></svg>