<svg width="98" height="98" viewBox="0 0 98 98" fill="none" xmlns="http://www.w3.org/2000/svg"><g clip-path="url(#clip0)"><path d="M80.71.043A1.921 1.921 0 0 0 80.308 0H17.992c-5.277 0-9.57 4.293-9.57 9.57v11.548a1.914 1.914 0 0 0 3.828 0V9.57a5.749 5.749 0 0 1 5.742-5.742h53.982a9.52 9.52 0 0 0-1.92 5.742v14.342a1.914 1.914 0 0 0 3.829 0V9.57a5.749 5.749 0 0 1 5.742-5.742h.191A5.749 5.749 0 0 1 85.56 9.57v8.04h-5.84a1.914 1.914 0 0 0 0 3.828h7.752a1.914 1.914 0 0 0 1.914-1.915V9.57c0-4.975-3.817-9.075-8.677-9.527z" fill="#000"/><path d="M11.689 27.192a1.92 1.92 0 0 0-1.353-.561 1.92 1.92 0 0 0-1.353.56 1.93 1.93 0 0 0-.561 1.354c0 .503.204.997.56 1.353.357.356.85.561 1.354.561.503 0 .997-.205 1.353-.56.356-.359.561-.85.561-1.354 0-.504-.205-.997-.561-1.353z" fill="#000"/><path d="M91.486 84.81V53.85c0-10.717-8.273-19.537-18.767-20.41-.851-3.89-4.324-6.81-8.466-6.81H62.49a1.914 1.914 0 0 0-1.914 1.914v8.336L46.513 55.216a1.914 1.914 0 0 0 .163 2.517l6.373 6.384a1.914 1.914 0 0 0 2.39.257l4.967-3.196h3.676v4.726c0 3.82-1.891 7.376-5.059 9.511a1.914 1.914 0 0 0-.844 1.587v7.644c-4.188.486-7.45 4.053-7.45 8.37v1.156H12.25c-3.986 0-7.334-2.783-8.203-6.508h41.275a1.914 1.914 0 0 0 0-3.828H12.25V35.283a1.914 1.914 0 0 0-3.828 0v48.553H1.914A1.914 1.914 0 0 0 0 85.75C0 92.505 5.495 98 12.25 98h83.836A1.914 1.914 0 0 0 98 96.086v-3.07c0-3.99-2.787-7.338-6.514-8.207zm-29.478-6.832a15.279 15.279 0 0 0 5.902-12.074v-5.008a8.966 8.966 0 0 0 6.746-8.69v-.974a1.914 1.914 0 0 0-3.828 0v.974a5.14 5.14 0 0 1-5.143 5.144h-5.841c-.368 0-.727.105-1.036.304l-4.141 2.665-4.097-4.104 13.438-17.52c.257-.335.396-.744.396-1.166V30.46a4.844 4.844 0 0 1 4.687 4.836 1.914 1.914 0 0 0 2.126 1.902c9.085.114 16.44 7.54 16.44 16.651v30.738h-3.821V73.883a1.914 1.914 0 0 0-3.828 0v10.704h-18v-6.609zm.008 16.194h-7.46v-1.156c0-2.537 2.065-4.6 4.601-4.6h30.414c2.537 0 4.6 2.063 4.6 4.6v1.156H62.017z" fill="#000"/><path d="M67.35 45.1a1.929 1.929 0 0 0-1.353-.562c-.505 0-1 .205-1.353.561-.356.356-.561.85-.561 1.353 0 .506.205.997.56 1.353a1.93 1.93 0 0 0 1.354.561c.504 0 .997-.204 1.353-.56.356-.357.561-.85.561-1.354 0-.503-.205-.997-.56-1.353z" fill="#000"/><path d="M28.71 10.336h-9.187a1.914 1.914 0 0 0-1.914 1.914v9.188c0 1.056.857 1.914 1.914 1.914h9.188a1.914 1.914 0 0 0 1.914-1.915V12.25a1.914 1.914 0 0 0-1.914-1.914zm-1.913 9.187h-5.36v-5.359h5.36v5.36z" fill="#CD071B"/><path d="M52.127 14.93H36.43a1.914 1.914 0 0 0 0 3.828h15.696a1.914 1.914 0 0 0 0-3.828z" fill="#CD071B"/><path d="M28.71 28.71h-9.187a1.914 1.914 0 0 0-1.914 1.915v9.188c0 1.056.857 1.914 1.914 1.914h9.188a1.914 1.914 0 0 0 1.914-1.914v-9.188a1.914 1.914 0 0 0-1.914-1.914zm-1.913 9.188h-5.36V32.54h5.36v5.36z" fill="#CD071B"/><path d="M52.127 33.305H36.43a1.914 1.914 0 0 0 0 3.828h15.696a1.914 1.914 0 0 0 0-3.828z" fill="#CD071B"/><path d="M28.71 47.086h-9.187A1.914 1.914 0 0 0 17.61 49v9.188c0 1.056.857 1.914 1.914 1.914h9.188a1.914 1.914 0 0 0 1.914-1.914V49a1.914 1.914 0 0 0-1.914-1.914zm-1.913 9.187h-5.36v-5.359h5.36v5.36z" fill="#CD071B"/><path d="M39.749 51.68h-3.318a1.914 1.914 0 0 0 0 3.828h3.318a1.914 1.914 0 0 0 0-3.828z" fill="#CD071B"/><path d="M28.71 65.444h-9.187a1.914 1.914 0 0 0-1.914 1.914v9.188c0 1.057.857 1.914 1.914 1.914h9.188a1.914 1.914 0 0 0 1.914-1.914v-9.188a1.914 1.914 0 0 0-1.914-1.914zm-1.913 9.188h-5.36v-5.36h5.36v5.36z" fill="#CD071B"/><path d="M49.025 70.038H36.43a1.914 1.914 0 0 0 0 3.828h12.594a1.914 1.914 0 0 0 0-3.828z" fill="#CD071B"/><path d="M83.275 65.256a1.928 1.928 0 0 0-1.353-.56c-.504 0-.997.204-1.353.56-.356.356-.561.85-.561 1.353 0 .504.204.998.56 1.353.357.357.85.561 1.354.561.503 0 .997-.204 1.353-.56.356-.356.56-.85.56-1.354 0-.503-.204-.997-.56-1.353z" fill="#000"/></g><defs><clipPath id="clip0"><path fill="#fff" d="M0 0h98v98H0z"/></clipPath></defs></svg>