<svg width="98" height="98" viewBox="0 0 98 98" fill="none" xmlns="http://www.w3.org/2000/svg"><path d="M42.467 31.033a4.906 4.906 0 0 0-4.9 4.9h3.267a1.634 1.634 0 0 1 3.266 0h3.267c0-2.701-2.199-4.9-4.9-4.9z" fill="#000"/><path d="M55.533 31.033a4.906 4.906 0 0 0-4.9 4.9H53.9c0-.9.732-1.633 1.633-1.633.902 0 1.634.733 1.634 1.633h3.266c0-2.701-2.198-4.9-4.9-4.9z" fill="#000"/><path d="M49 75.134a6.54 6.54 0 0 0-6.533 6.533A6.54 6.54 0 0 0 49 88.201a6.54 6.54 0 0 0 6.533-6.534A6.54 6.54 0 0 0 49 75.134zm0 9.8a3.27 3.27 0 0 1-3.267-3.267A3.27 3.27 0 0 1 49 78.4a3.27 3.27 0 0 1 3.267 3.267A3.27 3.27 0 0 1 49 84.934z" fill="#CD071B"/><path d="M88.2 94.733V73.5C88.2 59.99 77.21 49 63.7 49h-1.779a19.67 19.67 0 0 0 1.647-1.633h1.765c4.503 0 8.167-3.664 8.167-8.167v-2.878a7.346 7.346 0 0 0 3.267-6.105A7.344 7.344 0 0 0 73.48 24.1C73.263 10.777 62.375 0 49 0S24.737 10.777 24.52 24.1a7.344 7.344 0 0 0-3.287 6.117c0 4.052 3.298 7.35 7.35 7.35h1.113A19.566 19.566 0 0 0 36.08 49H34.3C20.79 49 9.8 59.99 9.8 73.5v21.233H0V98h98v-3.267h-9.8zM70.233 39.2c0 2.478-1.855 4.51-4.245 4.833a19.424 19.424 0 0 0 2.316-6.466h1.113c.279 0 .545-.053.816-.084V39.2zm3.267-8.983a4.088 4.088 0 0 1-4.083 4.083H68.6v-8.167h.817a4.088 4.088 0 0 1 4.083 4.084zM29.4 34.3h-.817a4.088 4.088 0 0 1-4.083-4.083 4.088 4.088 0 0 1 4.083-4.084h.817V34.3zm-.817-11.433c-.253 0-.491.049-.738.075C28.65 11.96 37.818 3.267 49 3.267s20.351 8.694 21.155 19.675c-.247-.026-.485-.075-.738-.075h-1.113C66.743 13.612 58.692 6.533 49 6.533c-9.692 0-17.743 7.08-19.304 16.334h-1.113zm36.749 3.226c-11.788-.415-19.599-5.235-19.599-9.76a1.633 1.633 0 1 0-3.266 0c0 4.082-4.22 7.465-9.706 8.064C33.632 16.204 40.581 9.8 49 9.8c8.992 0 16.309 7.306 16.332 16.293zM32.667 34.3v-6.625c5.1-.442 9.429-2.902 11.59-6.347 3.417 4.528 11.402 7.714 21.076 8.04V34.3c0 3.68-1.238 7.066-3.297 9.8H49v3.267h9.758a16.25 16.25 0 0 1-16.492 1.797c-5.652-2.571-9.6-8.259-9.6-14.864zM43.95 53.217c1.614.431 3.301.683 5.049.683 1.748 0 3.435-.252 5.049-.683L49 63.315l-5.049-10.098zm2.406 12.116h-2.88l-6.534-13.066h2.88l6.534 13.066zm11.82-13.066h2.88l-6.533 13.066h-2.881l6.533-13.066zM17.966 73.5v21.233h-4.9V73.5c0-11.376 9-20.663 20.248-21.183l6.509 13.016h-13.69c-4.504 0-8.167 3.664-8.167 8.167zm58.8 21.233H21.233V73.5c0-2.701 2.199-4.9 4.9-4.9h45.734c2.701 0 4.9 2.199 4.9 4.9v21.233zm8.166 0h-4.9V73.5c0-4.503-3.663-8.167-8.166-8.167h-13.69l6.508-13.016c11.249.52 20.248 9.807 20.248 21.183v21.233z" fill="#000"/><path d="M73.5 80.033h-3.267v11.433H73.5V80.034z" fill="#CD071B"/><path d="M73.5 73.5h-3.267v3.267H73.5V73.5z" fill="#CD071B"/><path d="M88.2 14.7h-3.267v3.267H88.2V14.7z" fill="#CD071B"/><path d="M88.2 21.233h-3.267V24.5H88.2v-3.267z" fill="#CD071B"/><path d="M88.2 27.767h-3.267v3.266H88.2v-3.266z" fill="#CD071B"/><path d="M13.066 34.3H9.8v3.267h3.266V34.3z" fill="#CD071B"/><path d="M13.066 40.833H9.8V44.1h3.266v-3.267z" fill="#CD071B"/><path d="M13.066 47.366H9.8v3.267h3.266v-3.267z" fill="#CD071B"/></svg>