<svg width="148" height="148" viewBox="0 0 148 148" fill="none" xmlns="http://www.w3.org/2000/svg"><path d="M59.251 69.632a2.7 2.7 0 0 0 2.74-.089l29.6-18.836a2.696 2.696 0 0 0 1.245-2.271c0-.92-.47-1.776-1.246-2.271l-29.6-18.837a2.705 2.705 0 0 0-2.742-.088 2.697 2.697 0 0 0-1.393 2.36v37.672c0 .982.535 1.887 1.396 2.36zM63.236 34.5l21.899 13.936-21.899 13.936V34.5z" fill="#CD071B"/><path d="M1.345 0v148h145.309V0H1.345zm139.927 5.382v88.8H6.727v-88.8h134.545zM6.727 142.618V99.564h134.545v43.054H6.727z" fill="#000"/><path d="M127.818 118.4H63.236v-5.382a2.689 2.689 0 0 0-2.69-2.691 2.689 2.689 0 0 0-2.692 2.691v5.382H47.091a2.689 2.689 0 0 0-2.691 2.691 2.689 2.689 0 0 0 2.69 2.691h10.764v5.382a2.688 2.688 0 0 0 2.691 2.69 2.688 2.688 0 0 0 2.691-2.69v-5.382h64.582a2.689 2.689 0 0 0 2.691-2.691 2.689 2.689 0 0 0-2.691-2.691z" fill="#CD071B"/><path d="M20.182 110.327a2.689 2.689 0 0 0-2.691 2.691v16.146a2.688 2.688 0 0 0 2.69 2.69 2.688 2.688 0 0 0 2.691-2.69v-16.146a2.689 2.689 0 0 0-2.69-2.691z" fill="#CD071B"/><path d="M30.945 110.327a2.689 2.689 0 0 0-2.69 2.691v16.146a2.688 2.688 0 0 0 2.69 2.69 2.688 2.688 0 0 0 2.691-2.69v-16.146a2.689 2.689 0 0 0-2.69-2.691z" fill="#CD071B"/></svg>