<svg width="78" height="78" viewBox="0 0 78 78" fill="none" xmlns="http://www.w3.org/2000/svg"><g clip-path="url(#clip0)"><path d="M55.25 16.253h-32.5c-4.478 0-8.125 3.643-8.125 8.124v45.498c0 4.482 3.647 8.124 8.125 8.124h32.498c4.478 0 8.125-3.643 8.125-8.124V24.378c0-4.482-3.647-8.125-8.125-8.125zm4.874 53.622a4.88 4.88 0 0 1-4.875 4.875H22.751a4.88 4.88 0 0 1-4.875-4.875V24.378a4.88 4.88 0 0 1 4.875-4.875h32.498a4.88 4.88 0 0 1 4.875 4.875v45.497z" fill="url(#paint0_linear)"/><path d="M32.894 45.551a1.62 1.62 0 0 0-1.97 1.183l-1.674 6.695-1.673-6.695a1.624 1.624 0 1 0-3.152.787l3.25 12.999a1.626 1.626 0 0 0 1.575 1.231c.745 0 1.395-.507 1.577-1.231l3.25-13a1.625 1.625 0 0 0-1.183-1.969z" fill="url(#paint1_linear)"/><path d="M39 45.501c-.897 0-1.625.728-1.625 1.625v13a1.626 1.626 0 0 0 3.25 0v-13c0-.897-.728-1.625-1.625-1.625z" fill="url(#paint2_linear)"/><path d="M48.75 45.501H45.5c-.898 0-1.626.728-1.626 1.625v13a1.626 1.626 0 0 0 3.25 0V55.25h1.625a4.88 4.88 0 0 0 4.875-4.874A4.88 4.88 0 0 0 48.75 45.5zm0 6.5h-1.626v-3.25h1.625c.897 0 1.625.731 1.625 1.625S49.646 52 48.75 52z" fill="url(#paint3_linear)"/><path d="M55.25 39.002h-32.5a1.626 1.626 0 0 0 0 3.25h32.5a1.626 1.626 0 0 0 0-3.25z" fill="url(#paint4_linear)"/><path d="M55.25 65h-32.5a1.626 1.626 0 0 0 0 3.25h32.5a1.626 1.626 0 0 0 0-3.25z" fill="url(#paint5_linear)"/><path d="M39 22.753a4.88 4.88 0 0 0-4.875 4.875A4.88 4.88 0 0 0 39 32.502a4.88 4.88 0 0 0 4.874-4.874A4.88 4.88 0 0 0 39 22.753zm0 6.5a1.628 1.628 0 0 1-1.625-1.625c0-.894.728-1.625 1.625-1.625s1.625.73 1.625 1.625c0 .893-.728 1.625-1.625 1.625z" fill="url(#paint6_linear)"/><path d="M52.727.173a1.625 1.625 0 0 0-2.18.728l-13 25.999A1.628 1.628 0 0 0 39 29.253c.595 0 1.167-.332 1.456-.9l13-25.999c.4-.803.074-1.778-.729-2.18z" fill="url(#paint7_linear)"/><path d="M35.578 17.15L27.454.902a1.624 1.624 0 0 0-2.181-.724 1.628 1.628 0 0 0-.728 2.18l8.124 16.25c.286.565.858.897 1.456.897a1.625 1.625 0 0 0 1.453-2.353z" fill="url(#paint8_linear)"/></g><defs><linearGradient id="paint0_linear" x1="39" y1="16.253" x2="39" y2="77.999" gradientUnits="userSpaceOnUse"><stop stop-color="#FFC700"/><stop offset="1" stop-color="#D8AC0E"/></linearGradient><linearGradient id="paint1_linear" x1="29.25" y1="45.502" x2="29.25" y2="61.751" gradientUnits="userSpaceOnUse"><stop stop-color="#FFC700"/><stop offset="1" stop-color="#D8AC0E"/></linearGradient><linearGradient id="paint2_linear" x1="39" y1="45.501" x2="39" y2="61.75" gradientUnits="userSpaceOnUse"><stop stop-color="#FFC700"/><stop offset="1" stop-color="#D8AC0E"/></linearGradient><linearGradient id="paint3_linear" x1="48.749" y1="45.501" x2="48.749" y2="61.75" gradientUnits="userSpaceOnUse"><stop stop-color="#FFC700"/><stop offset="1" stop-color="#D8AC0E"/></linearGradient><linearGradient id="paint4_linear" x1="39" y1="39.002" x2="39" y2="42.252" gradientUnits="userSpaceOnUse"><stop stop-color="#FFC700"/><stop offset="1" stop-color="#D8AC0E"/></linearGradient><linearGradient id="paint5_linear" x1="39" y1="65" x2="39" y2="68.25" gradientUnits="userSpaceOnUse"><stop stop-color="#FFC700"/><stop offset="1" stop-color="#D8AC0E"/></linearGradient><linearGradient id="paint6_linear" x1="39" y1="22.753" x2="39" y2="32.502" gradientUnits="userSpaceOnUse"><stop stop-color="#FFC700"/><stop offset="1" stop-color="#D8AC0E"/></linearGradient><linearGradient id="paint7_linear" x1="45.501" x2="45.501" y2="29.253" gradientUnits="userSpaceOnUse"><stop stop-color="#FFC700"/><stop offset="1" stop-color="#D8AC0E"/></linearGradient><linearGradient id="paint8_linear" x1="30.062" y1=".003" x2="30.062" y2="19.504" gradientUnits="userSpaceOnUse"><stop stop-color="#FFC700"/><stop offset="1" stop-color="#D8AC0E"/></linearGradient><clipPath id="clip0"><path fill="#fff" d="M0 0h78v78H0z"/></clipPath></defs></svg>