<svg width="112" height="112" viewBox="0 0 112 112" fill="none" xmlns="http://www.w3.org/2000/svg"><path d="M90.04 12.332H44.72a2.184 2.184 0 0 0 0 4.367h45.32a2.184 2.184 0 0 0 0-4.367z" fill="#000"/><path d="M22.582 12.972a2.2 2.2 0 0 0-1.543-.64 2.2 2.2 0 0 0-1.544.64 2.2 2.2 0 0 0-.64 1.544 2.2 2.2 0 0 0 .64 1.544c.406.406.97.64 1.544.64a2.2 2.2 0 0 0 1.543-.64c.407-.406.64-.97.64-1.544 0-.574-.233-1.138-.64-1.544z" fill="#000"/><path d="M14.559 12.972a2.2 2.2 0 0 0-1.544-.64 2.2 2.2 0 0 0-1.544.64 2.2 2.2 0 0 0-.64 1.544 2.2 2.2 0 0 0 .64 1.544c.406.406.97.64 1.544.64a2.2 2.2 0 0 0 1.543-.64c.407-.406.64-.97.64-1.544 0-.574-.233-1.138-.64-1.544z" fill="#000"/><path d="M30.606 12.972a2.204 2.204 0 0 0-1.546-.64c-.574 0-1.135.234-1.543.64a2.2 2.2 0 0 0-.64 1.544 2.2 2.2 0 0 0 .64 1.544c.408.406.97.64 1.544.64.576 0 1.137-.234 1.545-.64.407-.406.638-.97.638-1.544 0-.574-.231-1.138-.638-1.544z" fill="#000"/><path d="M111.361 95.41L94.172 78.222l2.697-2.696.002-.002.002-.002 2.696-2.696 8.491 8.491a2.184 2.184 0 0 0 3.088-3.088l-10.035-10.035a2.184 2.184 0 0 0-3.088 0l-2.698 2.698-1.307-1.307a25.452 25.452 0 0 0 6.02-16.46c0-14.1-11.47-25.57-25.569-25.57-7.263 0-13.829 3.045-18.488 7.925l-.06-.003h-41.95a2.184 2.184 0 0 0-2.183 2.183v30.567c0 1.206.978 2.183 2.184 2.183h41.675c4.677 5.089 11.383 8.283 18.822 8.283 6.265 0 12.01-2.266 16.461-6.02l1.307 1.307-2.699 2.699a2.184 2.184 0 0 0 0 3.088l9.148 9.148v9.443a4.809 4.809 0 0 1-4.803 4.803H9.17a4.809 4.809 0 0 1-4.803-4.803v-73.8l.024.002h94.298v9.84a2.184 2.184 0 0 0 4.366 0V13.644c0-5.057-4.113-9.17-9.17-9.17H9.17C4.114 4.472 0 8.585 0 13.642v84.715c0 5.056 4.114 9.17 9.17 9.17h84.715c5.056 0 9.17-4.114 9.17-9.17V93.28l5.218 5.217a2.18 2.18 0 0 0 3.088 0 2.185 2.185 0 0 0 0-3.088zm-62.45-41.62l-2.752-5.315a2.184 2.184 0 0 0-3.878 2.008l5.127 9.904a2.173 2.173 0 0 0 2.855.974 25.447 25.447 0 0 0 2.151 4.683H16.157v-26.2H52.63a25.414 25.414 0 0 0-3.72 13.946zm25.56 20.537c-11.69 0-21.202-9.511-21.202-21.202 0-.166.003-.332.007-.498l4.016 7.76a2.183 2.183 0 0 0 1.939 1.179h.032a2.183 2.183 0 0 0 1.936-1.238l4.757-9.904a2.184 2.184 0 0 0-3.937-1.89l-2.861 5.958-3.115-6.017a2.182 2.182 0 0 0-1.96-1.178c2.54-8.866 10.718-15.374 20.388-15.374 11.691 0 21.202 9.511 21.202 21.202 0 11.69-9.511 21.202-21.202 21.202zM4.367 13.643A4.809 4.809 0 0 1 9.17 8.839h84.715a4.809 4.809 0 0 1 4.803 4.804v6.55H4.391l-.024.001v-6.551z" fill="#000"/><path d="M39.917 47.51a2.184 2.184 0 0 0-2.914 1.022l-2.861 5.959-3.115-6.017a2.183 2.183 0 0 0-3.907.058l-2.862 5.958-3.114-6.017a2.183 2.183 0 1 0-3.879 2.008l5.127 9.904a2.185 2.185 0 0 0 3.907-.059l2.862-5.958 3.114 6.017a2.183 2.183 0 0 0 1.94 1.18h.032a2.183 2.183 0 0 0 1.936-1.239l4.756-9.904a2.183 2.183 0 0 0-1.022-2.913z" fill="#CD071B"/><path d="M89.95 47.51a2.184 2.184 0 0 0-2.914 1.022l-2.862 5.959-3.114-6.018a2.183 2.183 0 0 0-3.907.059l-2.862 5.959-3.115-6.018a2.184 2.184 0 0 0-3.878 2.008l5.127 9.904a2.183 2.183 0 0 0 1.939 1.18h.033a2.183 2.183 0 0 0 1.935-1.238l2.862-5.959 3.114 6.017a2.183 2.183 0 0 0 1.94 1.18h.032a2.183 2.183 0 0 0 1.936-1.238l4.756-9.904a2.184 2.184 0 0 0-1.023-2.914z" fill="#CD071B"/><path d="M15.517 87.644a2.19 2.19 0 0 0-1.543-.64c-.575 0-1.138.231-1.544.64a2.2 2.2 0 0 0-.64 1.543 2.2 2.2 0 0 0 .64 1.544 2.2 2.2 0 0 0 1.543.64 2.2 2.2 0 0 0 1.544-.64c.406-.406.64-.97.64-1.544a2.2 2.2 0 0 0-.64-1.543z" fill="#CD071B"/><path d="M63.988 87.006H21.47a2.183 2.183 0 0 0 0 4.367h42.517a2.184 2.184 0 0 0 0-4.367z" fill="#CD071B"/><path d="M55.894 76.525H43.012a2.184 2.184 0 0 0 0 4.366h12.882a2.184 2.184 0 0 0 0-4.366z" fill="#CD071B"/><path d="M33.207 76.525H13.974a2.184 2.184 0 0 0 0 4.366h19.233a2.184 2.184 0 0 0 0-4.366z" fill="#CD071B"/></svg>