<svg width="245" height="55" viewBox="0 0 245 55" fill="none" xmlns="http://www.w3.org/2000/svg"><g clip-path="url(#clip0)"><path d="M76.478 8.606c-.9-3.365-3.538-6.018-6.882-6.924C63.486 0 39.043 0 39.043 0S14.601 0 8.49 1.618c-3.28.906-5.98 3.622-6.882 6.988C0 14.753 0 27.5 0 27.5s0 12.812 1.608 18.894c.9 3.365 3.538 6.018 6.882 6.924C14.665 55 39.043 55 39.043 55s24.442 0 30.553-1.618c3.344-.905 5.982-3.558 6.882-6.923 1.608-6.147 1.608-18.894 1.608-18.894s.064-12.812-1.608-18.96z" fill="#CD071B"/><path d="M31.26 39.276L51.586 27.5 31.26 15.723v23.553z" fill="#fff"/><path d="M113.399 50.082c-1.544-1.035-2.638-2.653-3.281-4.917-.643-2.2-.965-5.177-.965-8.8v-4.983c0-3.688.386-6.664 1.094-8.929.772-2.265 1.929-3.882 3.473-4.918 1.608-1.035 3.666-1.553 6.239-1.553 2.509 0 4.567.518 6.111 1.553 1.544 1.036 2.637 2.718 3.345 4.918.707 2.2 1.093 5.176 1.093 8.93v4.982c0 3.688-.322 6.6-1.029 8.864-.708 2.2-1.801 3.883-3.345 4.918-1.544 1.035-3.666 1.553-6.303 1.553-2.702-.065-4.889-.582-6.432-1.618zm8.683-5.435c.45-1.1.643-2.976.643-5.5V28.406c0-2.459-.193-4.27-.643-5.435s-1.158-1.683-2.251-1.683c-1.029 0-1.801.583-2.187 1.683-.451 1.164-.643 2.976-.643 5.435v10.741c0 2.524.192 4.4.643 5.5.386 1.1 1.158 1.682 2.251 1.682 1.029 0 1.737-.517 2.187-1.682z" fill="#282828"/><path d="M232.136 36.43v1.746c0 2.2.064 3.883.193 4.983.128 1.1.386 1.941.836 2.394.386.518 1.029.776 1.93.776 1.157 0 1.929-.453 2.379-1.358.451-.906.644-2.394.708-4.53l6.625.388c.064.324.064.712.064 1.23 0 3.17-.836 5.565-2.572 7.117-1.737 1.553-4.181 2.33-7.333 2.33-3.795 0-6.432-1.23-7.976-3.624-1.544-2.394-2.316-6.082-2.316-11.129v-6.018c0-5.176.772-8.93 2.38-11.323 1.608-2.394 4.31-3.559 8.105-3.559 2.637 0 4.695.518 6.11 1.488s2.38 2.524 2.959 4.53c.579 2.07.836 4.917.836 8.54V36.3h-12.928v.13zm.965-14.495c-.386.518-.644 1.294-.772 2.394-.129 1.1-.193 2.783-.193 5.047v2.46h5.66v-2.46c0-2.2-.064-3.882-.193-5.047-.129-1.164-.45-1.94-.836-2.394-.386-.453-1.029-.711-1.801-.711-.901-.065-1.48.194-1.865.711z" fill="#282828"/><path d="M94.617 35.782l-8.748-31.9h7.654l3.088 14.43c.771 3.559 1.35 6.6 1.736 9.123h.193c.258-1.811.836-4.788 1.737-9.058l3.216-14.495h7.654l-8.876 31.9v15.27h-7.59v-15.27h-.064z" fill="#282828"/><path d="M155.4 16.63v34.488h-6.046l-.643-4.206h-.193c-1.608 3.17-4.117 4.788-7.397 4.788-2.251 0-3.924-.777-5.017-2.265-1.093-1.488-1.608-3.817-1.608-7.053V16.63h7.719v25.3c0 1.553.192 2.653.514 3.3.322.648.901.971 1.672.971.644 0 1.287-.194 1.93-.647.643-.388 1.094-.906 1.351-1.553V16.63h7.718z" fill="#282828"/><path d="M194.958 16.63v34.488h-6.046l-.643-4.206h-.193c-1.608 3.17-4.117 4.788-7.397 4.788-2.252 0-3.924-.777-5.017-2.265-1.094-1.488-1.608-3.817-1.608-7.053V16.63h7.718v25.3c0 1.553.193 2.653.515 3.3.321.648.9.971 1.672.971.643 0 1.286-.194 1.93-.647.643-.388 1.093-.906 1.35-1.553V16.63h7.719z" fill="#282828"/><path d="M176.369 10.159h-7.654v40.894h-7.526V10.159h-7.654V3.882h22.834v6.277z" fill="#282828"/><path d="M220.494 22.13c-.451-2.2-1.223-3.753-2.252-4.724-1.029-.97-2.508-1.488-4.309-1.488a6.905 6.905 0 0 0-3.988 1.23 7.898 7.898 0 0 0-2.83 3.17h-.065V2.135h-7.461v48.918h6.368l.772-3.235h.193c.579 1.164 1.479 2.07 2.701 2.782 1.222.647 2.509 1.035 3.988 1.035 2.637 0 4.503-1.23 5.725-3.623 1.222-2.394 1.865-6.212 1.865-11.324v-5.435c-.064-3.947-.257-6.988-.707-9.124zm-7.076 14.04c0 2.524-.128 4.465-.321 5.889-.193 1.423-.579 2.459-1.03 3.041-.514.582-1.157.906-1.929.906-.643 0-1.222-.13-1.737-.453a3.726 3.726 0 0 1-1.286-1.359V24.653a5.296 5.296 0 0 1 1.35-2.33c.644-.582 1.351-.905 2.059-.905.772 0 1.415.323 1.801.906.45.647.707 1.682.9 3.105.193 1.489.258 3.56.258 6.212v4.53h-.065z" fill="#282828"/></g><defs><clipPath id="clip0"><path fill="#fff" d="M0 0h245v55H0z"/></clipPath></defs></svg>