<svg width="18" height="18" viewBox="0 0 18 18" fill="none" xmlns="http://www.w3.org/2000/svg"><g clip-path="url(#clip0)" fill="#386034"><path d="M16.803 9.233a.528.528 0 0 1 0-.466l.671-1.373a1.563 1.563 0 0 0-.674-2.075l-1.35-.717a.527.527 0 0 1-.274-.377l-.264-1.506a1.563 1.563 0 0 0-1.765-1.282l-1.514.214a.527.527 0 0 1-.443-.144L10.09.444a1.562 1.562 0 0 0-2.182 0L6.811 1.507a.528.528 0 0 1-.444.144l-1.513-.214a1.562 1.562 0 0 0-1.766 1.282l-.264 1.506a.528.528 0 0 1-.274.377L1.2 5.32a1.563 1.563 0 0 0-.674 2.075l.671 1.373a.527.527 0 0 1 0 .466l-.671 1.374a1.563 1.563 0 0 0 .674 2.075l1.35.716a.528.528 0 0 1 .274.377l.264 1.506a1.562 1.562 0 0 0 1.766 1.282l1.513-.214a.527.527 0 0 1 .444.144l1.098 1.063a1.564 1.564 0 0 0 2.182 0l1.099-1.063a.528.528 0 0 1 .443-.144l1.514.214a1.562 1.562 0 0 0 1.765-1.282l.264-1.506a.528.528 0 0 1 .274-.377l1.35-.716a1.562 1.562 0 0 0 .674-2.075l-.67-1.374zm-.49 2.531l-1.35.717c-.43.229-.725.635-.81 1.115l-.264 1.506a.529.529 0 0 1-.597.434l-1.514-.215a1.558 1.558 0 0 0-1.31.426L9.369 16.81c-.207.2-.531.2-.738 0l-1.099-1.063a1.557 1.557 0 0 0-1.31-.426l-1.514.214a.529.529 0 0 1-.597-.434l-.264-1.505a1.559 1.559 0 0 0-.81-1.115l-1.35-.716a.529.529 0 0 1-.229-.703L2.13 9.69a1.56 1.56 0 0 0 0-1.378l-.672-1.373a.529.529 0 0 1 .228-.702l1.35-.717a1.56 1.56 0 0 0 .81-1.115L4.112 2.9a.529.529 0 0 1 .597-.434l1.514.214c.482.068.96-.087 1.31-.426L8.631 1.19c.207-.2.531-.2.738 0l1.099 1.063c.35.339.828.494 1.31.426l1.514-.214c.285-.04.547.15.597.434l.264 1.505c.085.48.38.887.81 1.115l1.35.717a.529.529 0 0 1 .229.702L15.87 8.31a1.56 1.56 0 0 0 0 1.378l.672 1.373a.529.529 0 0 1-.228.703z"/><path d="M12.793 5.207a.52.52 0 0 0-.734 0l-6.852 6.851a.52.52 0 0 0 .734.734l6.852-6.851a.519.519 0 0 0 0-.734z"/><path d="M6.924 4.328c-1.05 0-1.903.854-1.903 1.903 0 1.05.853 1.904 1.903 1.904S8.827 7.28 8.827 6.23a1.906 1.906 0 0 0-1.903-1.903zm0 2.769a.866.866 0 0 1 0-1.73.866.866 0 0 1 0 1.73z"/><path d="M11.076 9.865c-1.05 0-1.903.854-1.903 1.903 0 1.05.854 1.904 1.903 1.904 1.05 0 1.903-.854 1.903-1.904a1.905 1.905 0 0 0-1.903-1.903zm0 2.769a.866.866 0 0 1 0-1.73.866.866 0 0 1 0 1.73z"/></g><defs><clipPath id="clip0"><path fill="#fff" d="M0 0h18v18H0z"/></clipPath></defs></svg>