<svg width="112" height="112" viewBox="0 0 112 112" fill="none" xmlns="http://www.w3.org/2000/svg">
<path d="M98.8138 51.9005C95.0027 49.9952 87.8572 49.9731 87.5549 49.9731C86.6489 49.9731 85.9143 50.7077 85.9143 51.6138C85.9143 52.5198 86.6489 53.2544 87.5549 53.2544C89.3988 53.2546 94.7522 53.5386 97.3464 54.8355C97.582 54.9534 97.8322 55.009 98.0788 55.009C98.6806 55.009 99.26 54.6765 99.5475 54.1018C99.9528 53.2914 99.6242 52.3059 98.8138 51.9005Z" fill="black"/>
<path d="M106.993 75.2589L100.217 73.323C99.925 73.2394 99.7207 72.9686 99.7207 72.6643V70.4027C100.272 70.0207 100.798 69.5933 101.289 69.1162C103.672 66.8045 104.983 63.7037 104.983 60.3848V57.2639L105.639 55.9538C106.358 54.5155 106.738 52.9053 106.738 51.2975V42.8428C106.738 41.9367 106.003 41.2022 105.097 41.2022H89.3091C83.5682 41.2022 78.8974 45.8729 78.8974 51.6138V51.7116C78.8974 53.0486 79.2135 54.3876 79.8114 55.5832L80.6516 57.2637V59.9434C80.6516 64.1902 82.7444 68.0006 85.9143 70.2935L85.9147 72.6639C85.9147 73.0294 85.9147 73.1808 84.56 73.568L81.2538 74.5126L71.6898 71.0349C71.7242 70.5836 71.5719 70.1247 71.2427 69.7788L68.1866 66.568V61.178C68.5097 60.9118 68.8282 60.6383 69.1368 60.3492C72.9923 56.7354 75.2034 51.6333 75.2034 46.3511V42.0466C76.3676 39.5132 76.9576 36.8324 76.9576 34.0716V16.53C76.9576 15.624 76.223 14.8894 75.3169 14.8894H50.7581C42.1153 14.8894 35.084 21.9209 35.084 30.5635V34.072C35.084 36.8329 35.674 39.5137 36.8382 42.047V45.7507C36.8382 51.8835 39.5651 57.4087 43.855 61.0513V66.5682L40.7988 69.779C40.4696 70.1249 40.3174 70.5838 40.3517 71.0351L30.2575 74.7055C29.526 74.9715 28.8463 75.3318 28.2293 75.7682L26.6442 74.9757C31.3626 72.9218 32.8573 70.0332 32.9291 69.8897C33.1601 69.4279 33.1601 68.8841 32.9291 68.4223C31.7463 66.0568 31.603 61.7209 31.488 58.2371C31.4497 57.0773 31.4134 55.9816 31.344 55.006C30.7847 47.1367 24.8023 41.2022 17.4282 41.2022C10.0542 41.2022 4.07159 47.1364 3.51247 55.006C3.44312 55.9818 3.40681 57.0775 3.36853 58.2376C3.25347 61.7212 3.10997 66.0566 1.92741 68.4221C1.69641 68.8839 1.69641 69.4277 1.92741 69.8895C1.99916 70.033 3.49081 72.9157 8.21866 74.9719L3.81588 77.1732C1.46213 78.351 0 80.7167 0 83.3481V95.4688C0 96.3749 0.734562 97.1094 1.64062 97.1094C2.54669 97.1094 3.28125 96.3749 3.28125 95.4688V83.3481C3.28125 81.9673 4.04841 80.7259 5.28325 80.1084L10.7658 77.3672L12.6728 79.1796C14.0063 80.4468 15.717 81.0801 17.4282 81.0801C19.1391 81.0801 20.8506 80.4464 22.1837 79.1796L24.0905 77.3675L25.8781 78.2613C25.0364 79.6081 24.5586 81.1875 24.5586 82.8419V95.4692C24.5586 96.3753 25.2932 97.1099 26.1992 97.1099C27.1053 97.1099 27.8399 96.3753 27.8399 95.4692V82.8419C27.8399 80.5897 29.262 78.5592 31.3788 77.7894L42.0214 73.9195L46.4518 80.5654C47.0181 81.415 47.9257 81.9599 48.9418 82.0605C49.0551 82.0717 49.1678 82.0771 49.2802 82.0771C50.1767 82.0771 51.0353 81.7243 51.6771 81.0827L54.3799 78.3798V95.4695C54.3799 96.3755 55.1145 97.1101 56.0206 97.1101C56.9266 97.1101 57.6612 96.3755 57.6612 95.4695V78.3798L60.3641 81.0827C61.0057 81.7245 61.8643 82.0774 62.7609 82.0774C62.8731 82.0774 62.986 82.0719 63.0991 82.0607C64.1154 81.9601 65.023 81.4152 65.5893 80.5656L70.0199 73.92L80.6623 77.7899C82.7789 78.5597 84.2013 80.5901 84.2013 82.8423V95.4697C84.2013 96.3757 84.9358 97.1103 85.8419 97.1103C86.7479 97.1103 87.4825 96.3757 87.4825 95.4697V82.8423C87.4825 80.5612 86.5762 78.4218 85.0559 76.8396L85.4613 76.7239C85.8701 76.6071 86.4279 76.4472 86.9879 76.1726L91.1768 80.3615V95.4697C91.1768 96.3757 91.9113 97.1103 92.8174 97.1103C93.7234 97.1103 94.458 96.3757 94.458 95.4697V80.3615L98.6178 76.2017C98.8389 76.3142 99.0712 76.4091 99.3158 76.4789L106.092 78.4148C107.638 78.8567 108.719 80.2889 108.719 81.8976V95.4697C108.719 96.3757 109.453 97.1103 110.359 97.1103C111.265 97.1103 112 96.3757 112 95.4697V81.8976C112 78.8311 109.941 76.1013 106.993 75.2589ZM10.5252 72.3612C7.45631 71.2569 5.91697 69.7847 5.25984 68.9808C5.70784 67.8096 5.99834 66.4682 6.195 65.0523C7.09975 67.2216 8.61503 69.0736 10.5252 70.3948V72.3612ZM19.9237 76.8013C18.5244 78.1309 16.3323 78.1307 14.9334 76.8011L13.4076 75.3512C13.6651 74.8689 13.8066 74.322 13.8066 73.7491V72.0004C14.9511 72.3581 16.1678 72.551 17.4287 72.551C18.688 72.551 19.9041 72.3572 21.0505 72.0015L21.0503 73.7489C21.0503 74.322 21.1916 74.8691 21.4493 75.3517L19.9237 76.8013ZM17.4291 69.2698C12.53 69.2698 8.54459 65.2842 8.54459 60.3852C8.54459 59.4792 7.81003 58.7446 6.90397 58.7446C6.81209 58.7446 6.72241 58.754 6.63469 58.7687C6.6395 58.6276 6.64409 58.4863 6.64891 58.3465C6.68544 57.2184 6.72066 56.1529 6.78562 55.2389C6.99519 52.2911 8.17316 49.5746 10.1025 47.5897C12.0492 45.5868 14.651 44.4839 17.4287 44.4839C20.2064 44.4839 22.808 45.5868 24.7548 47.5897C26.6842 49.5746 27.8622 52.2911 28.0718 55.2389C28.1365 56.1527 28.1719 57.218 28.2091 58.3458C28.2124 58.4427 28.2157 58.541 28.219 58.6385C26.434 55.8884 23.6773 53.8617 20.1154 52.7172C16.8247 51.66 13.9945 51.7254 13.8751 51.7284C13.4455 51.7405 13.0377 51.9203 12.7396 52.2296L9.77944 55.2995C9.15053 55.9518 9.16934 56.9905 9.82166 57.6194C10.474 58.2483 11.5126 58.2292 12.1415 57.5771L14.6046 55.0228C16.7258 55.1265 23.5502 55.9201 26.2043 61.7645C25.5364 66.0712 21.8348 69.2698 17.4291 69.2698ZM24.3313 72.3666L24.3316 70.4099C26.2402 69.0959 27.7576 67.2474 28.663 65.0617C28.8597 66.4744 29.15 67.8127 29.5971 68.9812C28.9437 69.7775 27.3971 71.2628 24.3313 72.3666ZM40.1194 45.7504V41.6799C40.1194 41.433 40.0636 41.1891 39.9562 40.9666C38.9005 38.7804 38.3652 36.4608 38.3652 34.072V30.5637C38.3652 23.7302 43.9248 18.1709 50.7581 18.1709H73.6763V34.0722C73.6763 36.461 73.141 38.7806 72.0853 40.9668C71.9779 41.1893 71.9221 41.4332 71.9221 41.6802V46.3516C71.9221 50.7946 70.1361 54.9156 66.8929 57.9556C66.488 58.3349 66.0677 58.6906 65.6333 59.022C65.6237 59.0286 65.6145 59.0358 65.6051 59.0426C62.5669 61.3493 58.8455 62.4704 54.9592 62.2186C46.6377 61.6798 40.1194 54.4462 40.1194 45.7504ZM49.357 78.7622C49.3456 78.7736 49.3192 78.8005 49.2656 78.7948C49.2122 78.7896 49.1912 78.7583 49.1822 78.7447L44.0799 71.0911L45.7218 69.3658L53.4623 74.6567L49.357 78.7622ZM56.0208 72.4309L47.1362 66.358V63.2955C49.4351 64.5382 52.0091 65.3154 54.7468 65.4926C55.1792 65.5206 55.6091 65.5344 56.0376 65.5344C59.1747 65.5344 62.1939 64.7845 64.9053 63.3611V66.358L56.0208 72.4309ZM62.8593 78.7452C62.8504 78.7587 62.8294 78.79 62.776 78.7952C62.7224 78.802 62.6962 78.7738 62.6846 78.7627L58.5793 74.6574L66.3197 69.3662L67.9619 71.0915L62.8593 78.7452ZM92.8174 77.3609L89.0942 73.638C89.1592 73.3429 89.196 73.0198 89.1958 72.6635L89.1955 71.9711C90.2287 72.3102 91.3176 72.5114 92.4444 72.5451C92.5708 72.5491 92.6962 72.5508 92.8222 72.5508C94.0673 72.5508 95.2827 72.3627 96.4394 72.0037V72.6643C96.4394 72.9916 96.4806 73.3123 96.558 73.6205L92.8174 77.3609ZM99.0043 66.7616C97.2654 68.449 94.9683 69.3402 92.5431 69.2654C87.7953 69.123 83.9328 64.9412 83.9328 59.9438V56.8767C83.9328 56.6219 83.8736 56.3707 83.7596 56.143L82.7461 54.1161C82.3749 53.3734 82.1787 52.5422 82.1787 51.7118V51.614C82.1787 47.6822 85.3775 44.4837 89.3091 44.4837H103.456V51.2977C103.456 52.3989 103.196 53.5016 102.704 54.4867L101.875 56.143C101.761 56.371 101.702 56.6219 101.702 56.8767V60.385C101.702 62.8088 100.744 65.0733 99.0043 66.7616Z" fill="black"/>
<path d="M103.343 83.303C102.436 83.303 101.702 84.0375 101.702 84.9436V95.4688C101.702 96.3748 102.436 97.1094 103.343 97.1094C104.249 97.1094 104.983 96.3748 104.983 95.4688V84.9436C104.983 84.0378 104.249 83.303 103.343 83.303Z" fill="black"/>
<path d="M8.65747 85.4717C7.75141 85.4717 7.01685 86.2062 7.01685 87.1123V95.4688C7.01685 96.3748 7.75141 97.1094 8.65747 97.1094C9.56353 97.1094 10.2981 96.3748 10.2981 95.4688V87.1123C10.2981 86.2065 9.56353 85.4717 8.65747 85.4717Z" fill="black"/>
<path d="M69.4601 34.6663C63.2551 28.4612 50.2725 29.6475 44.9783 30.4455C43.3107 30.6968 42.1006 32.108 42.1006 33.8009V37.5805C42.1006 38.4865 42.8352 39.2211 43.7412 39.2211C44.6473 39.2211 45.3819 38.4865 45.3819 37.5805V33.8007C45.3819 33.7449 45.4186 33.6972 45.4676 33.6898C47.5823 33.3711 51.7786 32.8793 56.1262 33.1692C61.2423 33.5097 64.948 34.794 67.1401 36.9863C67.7808 37.6271 68.8196 37.6271 69.4601 36.9863C70.1008 36.3456 70.1008 35.3068 69.4601 34.6663Z" fill="#CD071B"/>
<path d="M36.7246 86.8115C35.8185 86.8115 35.084 87.5461 35.084 88.4521V95.469C35.084 96.3751 35.8185 97.1096 36.7246 97.1096C37.6307 97.1096 38.3652 96.3751 38.3652 95.469V88.4521C38.3652 87.5463 37.6307 86.8115 36.7246 86.8115Z" fill="black"/>
<path d="M75.317 86.8115C74.4109 86.8115 73.6763 87.5461 73.6763 88.4521V95.469C73.6763 96.3751 74.4109 97.1096 75.317 97.1096C76.223 97.1096 76.9576 96.3751 76.9576 95.469V88.4521C76.9576 87.5463 76.223 86.8115 75.317 86.8115Z" fill="black"/>
</svg>
